<svg width="16" height="16" viewBox="0 0 16 16" fill="none" xmlns="http://www.w3.org/2000/svg">
<rect width="16" height="16" rx="8" fill="#A1FA99"/>
<g clip-path="url(#clip0_95_893)">
<path d="M7.92862 7.81703C8.59039 7.81703 9.16344 7.57968 9.63165 7.11139C10.0999 6.64317 10.3372 6.07028 10.3372 5.40844C10.3372 4.74682 10.0999 4.17385 9.63158 3.70549C9.16328 3.23735 8.59032 3 7.92862 3C7.26677 3 6.69388 3.23735 6.22566 3.70556C5.75745 4.17378 5.52002 4.74674 5.52002 5.40844C5.52002 6.07028 5.75745 6.64325 6.22574 7.11146C6.69403 7.5796 7.267 7.81703 7.92862 7.81703Z" fill="white"/>
<path d="M12.1431 10.6895C12.1296 10.4946 12.1023 10.2821 12.0621 10.0576C12.0215 9.83149 11.9693 9.61771 11.9067 9.42233C11.8421 9.22038 11.7542 9.02095 11.6456 8.82983C11.5328 8.63147 11.4003 8.45874 11.2517 8.3166C11.0963 8.16791 10.906 8.04835 10.686 7.96115C10.4667 7.8744 10.2237 7.83046 9.96381 7.83046C9.86172 7.83046 9.763 7.87234 9.57234 7.99647C9.455 8.073 9.31775 8.1615 9.16455 8.25938C9.03355 8.34285 8.85609 8.42105 8.6369 8.49185C8.42305 8.56105 8.20592 8.59614 7.99161 8.59614C7.7773 8.59614 7.56024 8.56105 7.34616 8.49185C7.1272 8.42112 6.94974 8.34292 6.81889 8.25946C6.66714 8.16249 6.52982 8.07399 6.41072 7.9964C6.22029 7.87227 6.12149 7.83038 6.01941 7.83038C5.7594 7.83038 5.51648 7.8744 5.29729 7.96123C5.07741 8.04828 4.88705 8.16783 4.73149 8.31668C4.58295 8.45889 4.45042 8.63154 4.33781 8.82983C4.22925 9.02095 4.14136 9.2203 4.07666 9.4224C4.01418 9.61779 3.96191 9.83149 3.92133 10.0576C3.88112 10.2818 3.85381 10.4944 3.8403 10.6897C3.82703 10.8811 3.82031 11.0797 3.82031 11.2802C3.82031 11.8022 3.98625 12.2248 4.31348 12.5365C4.63666 12.844 5.06429 13 5.5843 13H10.3994C10.9194 13 11.3469 12.8441 11.6701 12.5365C11.9974 12.225 12.1634 11.8024 12.1634 11.2802C12.1633 11.0787 12.1565 10.8799 12.1431 10.6895Z" fill="white"/>
</g>
<defs>
<clipPath id="clip0_95_893">
<rect width="10" height="10" fill="white" transform="translate(3 3)"/>
</clipPath>
</defs>
</svg>
