<svg width="25" height="24" viewBox="0 0 25 24" fill="none" xmlns="http://www.w3.org/2000/svg">
<g clip-path="url(#clip0_86_560)">
<path d="M7.45825 7.07812H2.44263C1.27947 7.07812 0.333252 8.02434 0.333252 9.1875V13.4062C0.333252 14.5694 1.27947 15.5156 2.44263 15.5156H7.45825V7.07812Z" fill="white"/>
<path d="M21.5208 1.45312H20.1145C20.1145 2.86481 19.3619 4.15786 18.1424 4.869C16.4279 5.86889 13.5097 6.95892 8.8645 7.06181V15.5319C13.5113 15.6348 16.4298 16.7255 18.1435 17.7248C19.3628 18.4357 20.1145 19.7292 20.1145 21.1406H21.5208V1.45312Z" fill="white"/>
<path d="M3.64771 16.9219L4.77285 22.5469H9.01906L7.89392 16.9219H3.64771Z" fill="white"/>
<path d="M22.927 9.45605V13.1378L24.3333 12.4347V10.1592L22.927 9.45605Z" fill="white"/>
</g>
<defs>
<clipPath id="clip0_86_560">
<rect width="24" height="24" fill="white" transform="translate(0.333252)"/>
</clipPath>
</defs>
</svg>
