<svg width="25" height="24" viewBox="0 0 25 24" fill="none" xmlns="http://www.w3.org/2000/svg">
<path d="M20.4466 2.85376V5.11867H19.0404V2.85376H17.5492V5.11867H16.143V2.85376H14.6518V5.11867H13.2456V2.85376H11.7544V5.11867H10.3481V2.85376H8.85701V5.11867H7.45076V2.85376H5.95962V5.11867H4.55337V2.85376H2.3591V23.9999H22.6408V2.85376H20.4466ZM7.42957 7.49321H16.2666V8.89946H7.42957V7.49321ZM7.42957 13.288H17.1052V14.6943H7.42957V13.288ZM5.95962 20.4891H4.55337V19.0828H5.95962V20.4891ZM5.95962 17.5917H4.55337V16.1854H5.95962V17.5917ZM5.95962 14.6943H4.55337V13.288H5.95962V14.6943ZM5.95962 11.7969H4.55337V10.3907H5.95962V11.7969ZM5.95962 8.89951H4.55337V7.49326H5.95962V8.89951ZM17.1052 20.4891H7.42957V19.0828H17.1052V20.4891ZM19.0191 17.5917H7.42957V16.1854H19.0191V17.5917ZM19.0191 11.7969H7.42957V10.3907H19.0191V11.7969Z" fill="white"/>
<path d="M19.0403 0H20.4466V2.85384H19.0403V0Z" fill="white"/>
<path d="M16.1429 0H17.5492V2.85384H16.1429V0Z" fill="white"/>
<path d="M13.2456 0H14.6519V2.85384H13.2456V0Z" fill="white"/>
<path d="M10.3481 0H11.7544V2.85384H10.3481V0Z" fill="white"/>
<path d="M7.45074 0H8.85699V2.85384H7.45074V0Z" fill="white"/>
<path d="M4.55338 0H5.95963V2.85384H4.55338V0Z" fill="white"/>
</svg>
