<svg width="24" height="24" viewBox="0 0 24 24" fill="none" xmlns="http://www.w3.org/2000/svg">
<g clip-path="url(#clip0_73_1866)">
<path d="M8.74432 13.2407C8.74432 12.94 8.50046 12.6965 8.19957 12.6965H6.2986C5.99806 12.6965 5.75415 12.94 5.75415 13.2407V15.1414C5.75415 15.4424 5.99806 15.6861 6.2986 15.6861H8.19957C8.50046 15.6861 8.74432 15.4424 8.74432 15.1414V13.2407Z" fill="#0099FF"/>
<path d="M13.495 13.2407C13.495 12.94 13.2511 12.6965 12.9508 12.6965H11.0496C10.749 12.6965 10.5051 12.94 10.5051 13.2407V15.1414C10.5051 15.4424 10.749 15.6861 11.0496 15.6861H12.9508C13.2511 15.6861 13.495 15.4424 13.495 15.1414V13.2407Z" fill="#0099FF"/>
<path d="M18.246 13.2407C18.246 12.94 18.0021 12.6965 17.7016 12.6965H15.8006C15.4997 12.6965 15.2559 12.94 15.2559 13.2407V15.1414C15.2559 15.4424 15.4997 15.6861 15.8006 15.6861H17.7016C18.0021 15.6861 18.246 15.4424 18.246 15.1414V13.2407Z" fill="#0099FF"/>
<path d="M8.74432 17.992C8.74432 17.6908 8.50046 17.4474 8.19957 17.4474H6.2986C5.99806 17.4474 5.75415 17.6908 5.75415 17.992V19.8923C5.75415 20.1932 5.99806 20.4368 6.2986 20.4368H8.19957C8.50046 20.4368 8.74432 20.1931 8.74432 19.8923V17.992Z" fill="#0099FF"/>
<path d="M13.495 17.992C13.495 17.6908 13.2511 17.4474 12.9508 17.4474H11.0496C10.749 17.4474 10.5051 17.6908 10.5051 17.992V19.8923C10.5051 20.1932 10.749 20.4368 11.0496 20.4368H12.9508C13.2511 20.4368 13.495 20.1931 13.495 19.8923V17.992Z" fill="#0099FF"/>
<path d="M18.246 17.992C18.246 17.6908 18.0021 17.4474 17.7018 17.4474H15.8006C15.4997 17.4474 15.2559 17.6908 15.2559 17.992V19.8923C15.2559 20.1932 15.4997 20.4368 15.8006 20.4368H17.7018C18.0021 20.4368 18.246 20.1931 18.246 19.8923V17.992Z" fill="#0099FF"/>
<path d="M21.6452 2.67229V5.57548C21.6452 6.8877 20.5807 7.94514 19.2686 7.94514H17.7694C16.4573 7.94514 15.3787 6.8877 15.3787 5.57548V2.66187H8.62146V5.57548C8.62146 6.8877 7.54288 7.94514 6.23096 7.94514H4.73148C3.41951 7.94514 2.35504 6.8877 2.35504 5.57548V2.67229C1.20836 2.70685 0.266113 3.65569 0.266113 4.82193V21.836C0.266113 23.0242 1.22916 24 2.41733 24H21.5828C22.7692 24 23.734 23.0222 23.734 21.836V4.82193C23.734 3.65569 22.7919 2.70685 21.6452 2.67229ZM20.9489 20.7765C20.9489 21.29 20.5325 21.7066 20.0188 21.7066H3.94036C3.42669 21.7066 3.01036 21.29 3.01036 20.7765V11.9881C3.01036 11.4744 3.42664 11.0579 3.94036 11.0579H20.0188C20.5325 11.0579 20.9488 11.4744 20.9488 11.9881L20.9489 20.7765Z" fill="#0099FF"/>
<path d="M4.72619 6.38875H6.20911C6.65921 6.38875 7.02416 6.02434 7.02416 5.57423V0.814812C7.02416 0.364657 6.65921 0 6.20911 0H4.72619C4.27604 0 3.91113 0.364657 3.91113 0.814812V5.57423C3.91113 6.02434 4.27604 6.38875 4.72619 6.38875Z" fill="#0099FF"/>
<path d="M17.7503 6.38875H19.2332C19.683 6.38875 20.048 6.02434 20.048 5.57423V0.814812C20.048 0.364657 19.6831 0 19.2332 0H17.7503C17.3003 0 16.9353 0.364657 16.9353 0.814812V5.57423C16.9353 6.02434 17.3003 6.38875 17.7503 6.38875Z" fill="#0099FF"/>
</g>
<defs>
<clipPath id="clip0_73_1866">
<rect width="24" height="24" fill="white"/>
</clipPath>
</defs>
</svg>
