<svg width="32" height="32" viewBox="0 0 32 32" fill="none" xmlns="http://www.w3.org/2000/svg">
<g clip-path="url(#clip0_73_844)">
<path d="M16 0C7.21187 0 0 7.21187 0 16C0 24.7881 7.21187 32 16 32C24.7881 32 32 24.7881 32 16C32 7.21187 24.7881 0 16 0ZM23.2921 7.38212C23.6582 7.016 24.2517 7.016 24.6179 7.38212C24.984 7.74825 24.984 8.34181 24.6179 8.70794C24.2517 9.07406 23.6582 9.07406 23.2921 8.70794C22.9259 8.34181 22.9259 7.74825 23.2921 7.38212ZM15.0625 4.75C15.0625 4.23181 15.4818 3.8125 16 3.8125C16.5182 3.8125 16.9375 4.23181 16.9375 4.75V6.625C16.9375 7.14319 16.5182 7.5625 16 7.5625C15.4818 7.5625 15.0625 7.14319 15.0625 6.625V4.75ZM4.75 16.9375C4.23181 16.9375 3.8125 16.5182 3.8125 16C3.8125 15.4818 4.23181 15.0625 4.75 15.0625H6.625C7.14319 15.0625 7.5625 15.4818 7.5625 16C7.5625 16.5182 7.14319 16.9375 6.625 16.9375H4.75ZM8.70794 24.6179C8.34181 24.984 7.74825 24.984 7.38212 24.6179C7.016 24.2517 7.016 23.6582 7.38212 23.2921C7.74825 22.9259 8.34181 22.9259 8.70794 23.2921C9.07406 23.6582 9.07406 24.2517 8.70794 24.6179ZM8.70794 8.70794C8.34181 9.07406 7.74825 9.07406 7.38212 8.70794C7.016 8.34181 7.016 7.74825 7.38212 7.38212C7.74825 7.016 8.34181 7.016 8.70794 7.38212C9.07406 7.74825 9.07406 8.34181 8.70794 8.70794ZM16.9375 27.25C16.9375 27.7682 16.5182 28.1875 16 28.1875C15.4818 28.1875 15.0625 27.7682 15.0625 27.25V25.375C15.0625 24.8568 15.4818 24.4375 16 24.4375C16.5182 24.4375 16.9375 24.8568 16.9375 25.375V27.25ZM22.2878 22.2878C21.9216 22.654 21.3283 22.654 20.9621 22.2878L15.3371 16.6628C15.1614 16.4871 15.0625 16.249 15.0625 16V10.375C15.0625 9.85681 15.4818 9.4375 16 9.4375C16.5182 9.4375 16.9375 9.85681 16.9375 10.375V15.6118L22.2878 20.9621C22.6541 21.3284 22.6541 21.9216 22.2878 22.2878ZM24.6179 24.6179C24.2517 24.984 23.6582 24.984 23.2921 24.6179C22.9259 24.2517 22.9259 23.6582 23.2921 23.2921C23.6582 22.9259 24.2517 22.9259 24.6179 23.2921C24.9839 23.6582 24.9839 24.2517 24.6179 24.6179ZM28.1875 16C28.1875 16.5182 27.7682 16.9375 27.25 16.9375H25.375C24.8568 16.9375 24.4375 16.5182 24.4375 16C24.4375 15.4818 24.8568 15.0625 25.375 15.0625H27.25C27.7682 15.0625 28.1875 15.4818 28.1875 16Z" fill="#0099FF"/>
</g>
<defs>
<clipPath id="clip0_73_844">
<rect width="32" height="32" fill="white"/>
</clipPath>
</defs>
</svg>
