<svg width="24" height="24" viewBox="0 0 24 24" fill="none" xmlns="http://www.w3.org/2000/svg">
<g clip-path="url(#clip0_37_220)">
<path d="M7.48117 13.1797C8.13165 13.1797 8.66087 12.6504 8.66087 12C8.66087 11.3495 8.13165 10.8203 7.48117 10.8203C6.83069 10.8203 6.30151 11.3495 6.30151 12C6.30151 12.6504 6.83069 13.1797 7.48117 13.1797Z" fill="#0099FF"/>
<path d="M7.48123 14.5859C6.45289 14.5859 5.57942 15.2615 5.28125 16.1922H9.68117C9.38305 15.2615 8.50953 14.5859 7.48123 14.5859Z" fill="#0099FF"/>
<path d="M21.7906 3.38904H2.20941C0.974859 3.38904 0 4.39169 0 5.59844V18.4016C0 19.6361 1.00266 20.6109 2.20941 20.6109H21.7906C23.0251 20.6109 24 19.6083 24 18.4015V5.59844C24 4.36385 22.9973 3.38904 21.7906 3.38904ZM10.4937 17.5984H4.46873C4.08042 17.5984 3.76561 17.2836 3.76561 16.8953C3.76561 15.5521 4.48205 14.3732 5.55281 13.7204C5.1443 13.263 4.89534 12.6601 4.89534 12C4.89534 10.5741 6.05536 9.41407 7.48125 9.41407C8.90714 9.41407 10.0672 10.5741 10.0672 12C10.0672 12.6602 9.81825 13.263 9.40969 13.7205C10.4805 14.3733 11.1969 15.5522 11.1969 16.8954C11.1968 17.2836 10.882 17.5984 10.4937 17.5984ZM18.025 17.5984H14.2594C13.8711 17.5984 13.5563 17.2836 13.5563 16.8953C13.5563 16.507 13.8711 16.1922 14.2594 16.1922H18.025C18.4133 16.1922 18.7281 16.507 18.7281 16.8953C18.7281 17.2836 18.4133 17.5984 18.025 17.5984ZM19.5313 14.5859H14.2594C13.8711 14.5859 13.5563 14.2711 13.5563 13.8828C13.5563 13.4945 13.8711 13.1797 14.2594 13.1797H19.5313C19.9196 13.1797 20.2344 13.4945 20.2344 13.8828C20.2344 14.2711 19.9196 14.5859 19.5313 14.5859ZM19.5313 11.5734H14.2594C13.8711 11.5734 13.5563 11.2586 13.5563 10.8703C13.5563 10.482 13.8711 10.1672 14.2594 10.1672H19.5313C19.9196 10.1672 20.2344 10.482 20.2344 10.8703C20.2344 11.2586 19.9196 11.5734 19.5313 11.5734ZM19.5313 7.80776H4.46873C4.08042 7.80776 3.76561 7.49294 3.76561 7.10463C3.76561 6.71632 4.08042 6.40151 4.46873 6.40151H19.5313C19.9196 6.40151 20.2344 6.71632 20.2344 7.10463C20.2344 7.49294 19.9196 7.80776 19.5313 7.80776Z" fill="#0099FF"/>
</g>
<defs>
<clipPath id="clip0_37_220">
<rect width="24" height="24" fill="white"/>
</clipPath>
</defs>
</svg>
