<svg width="24" height="24" viewBox="0 0 24 24" fill="none" xmlns="http://www.w3.org/2000/svg">
<path d="M18.4001 13.6C18.8419 13.6 19.2001 13.2418 19.2001 12.8C19.2001 12.3582 18.8419 12 18.4001 12C17.9583 12 17.6001 12.3582 17.6001 12.8C17.6001 13.2418 17.9583 13.6 18.4001 13.6Z" fill="#0099FF"/>
<path d="M11.1999 13.6C11.6417 13.6 11.9999 13.2418 11.9999 12.8C11.9999 12.3582 11.6417 12 11.1999 12C10.7581 12 10.3999 12.3582 10.3999 12.8C10.3999 13.2418 10.7581 13.6 11.1999 13.6Z" fill="#0099FF"/>
<path d="M4.8 18.4001C4.58783 18.4001 4.38434 18.3158 4.23431 18.1658C4.08429 18.0158 4 17.8123 4 17.6001V14.4001C4 13.7636 4.25286 13.1532 4.70294 12.7031C5.15303 12.253 5.76348 12.0001 6.4 12.0001H7.2C7.31952 12.0005 7.4376 11.9742 7.54559 11.9229C7.65357 11.8717 7.74871 11.7969 7.824 11.7041C7.90036 11.6103 7.95443 11.5003 7.98214 11.3825C8.00986 11.2647 8.01049 11.1422 7.984 11.0241C7.95222 10.8828 7.88265 10.7527 7.78274 10.6479C7.68282 10.543 7.5563 10.4672 7.41667 10.4286C7.27705 10.39 7.12957 10.39 6.98996 10.4287C6.85036 10.4673 6.72387 10.5432 6.624 10.6481C6.54963 10.7231 6.46115 10.7826 6.36366 10.8232C6.26617 10.8638 6.16161 10.8848 6.056 10.8848C5.95039 10.8848 5.84583 10.8638 5.74834 10.8232C5.65085 10.7826 5.56237 10.7231 5.488 10.6481C5.339 10.4982 5.25537 10.2955 5.25537 10.0841C5.25537 9.87277 5.339 9.67001 5.488 9.52012C5.77844 9.21434 6.14432 8.99049 6.5488 8.87111C6.95328 8.75173 7.38207 8.74104 7.792 8.84012C8.18606 8.93558 8.54952 9.12931 8.84845 9.40324C9.14738 9.67718 9.37203 10.0224 9.50145 10.4066C9.63086 10.7909 9.66082 11.2017 9.58852 11.6006C9.51622 11.9996 9.34402 12.3737 9.088 12.6881C8.86282 12.9731 8.5759 13.2032 8.24886 13.3612C7.92182 13.5192 7.56319 13.6009 7.2 13.6001H6.4C6.18783 13.6001 5.98434 13.6844 5.83431 13.8344C5.68429 13.9845 5.6 14.1879 5.6 14.4001V17.6001C5.6 17.8123 5.51571 18.0158 5.36569 18.1658C5.21566 18.3158 5.01217 18.4001 4.8 18.4001Z" fill="#0099FF"/>
<path d="M20 17.5999H18.8H18.336C17.0857 17.5478 15.9017 17.0234 15.0228 16.1326C14.1438 15.2418 13.6354 14.0508 13.6 12.7999C13.6201 11.8448 13.9247 10.9175 14.4748 10.1365C15.0249 9.35549 15.7955 8.75641 16.688 8.41591C15.6824 8.13774 14.6435 7.99779 13.6 7.99991C13.3879 7.99991 13.1844 7.91562 13.0344 7.76559C12.8843 7.61556 12.8 7.41208 12.8 7.19991C12.8 6.98773 12.8843 6.78425 13.0344 6.63422C13.1844 6.48419 13.3879 6.39991 13.6 6.39991C15.2885 6.39855 16.9616 6.72175 18.528 7.35191L20.296 8.05591C20.4694 8.12441 20.6133 8.25128 20.7031 8.41461C20.7929 8.57795 20.8228 8.76749 20.7877 8.95053C20.7526 9.13357 20.6547 9.29862 20.5109 9.41718C20.3671 9.53573 20.1864 9.60036 20 9.59991H18.8C17.899 9.54958 17.0146 9.85787 16.3401 10.4574C15.6656 11.057 15.2557 11.8991 15.2 12.7999C15.2456 13.6448 15.6059 14.442 16.2101 15.0343C16.8143 15.6266 17.6184 15.9711 18.464 15.9999H18.8H20C20.2122 15.9999 20.4157 16.0842 20.5657 16.2342C20.7158 16.3842 20.8 16.5877 20.8 16.7999C20.8 17.0121 20.7158 17.2156 20.5657 17.3656C20.4157 17.5156 20.2122 17.5999 20 17.5999Z" fill="#0099FF"/>
</svg>
