<svg width="25" height="24" viewBox="0 0 25 24" fill="none" xmlns="http://www.w3.org/2000/svg">
<g clip-path="url(#clip0_38_269)">
<path d="M17.5034 1.11548C16.3844 1.11548 15.3149 1.37201 14.3246 1.87799C13.6506 2.22235 13.0314 2.67988 12.5 3.22273C11.9686 2.67988 11.3494 2.22235 10.6754 1.87799C9.68507 1.37201 8.61556 1.11548 7.49652 1.11548C3.63866 1.11548 0.5 4.25413 0.5 8.11205C0.5 10.8445 1.94312 13.7467 4.78922 16.7379C7.16557 19.2354 10.075 21.3173 12.0971 22.6241L12.5 22.8844L12.9029 22.6241C14.925 21.3174 17.8344 19.2354 20.2108 16.7379C23.0569 13.7467 24.5 10.8445 24.5 8.11205C24.5 4.25413 21.3613 1.11548 17.5034 1.11548Z" fill="white"/>
</g>
<defs>
<clipPath id="clip0_38_269">
<rect width="24" height="24" fill="white" transform="translate(0.5)"/>
</clipPath>
</defs>
</svg>
