<svg width="17" height="16" viewBox="0 0 17 16" fill="none" xmlns="http://www.w3.org/2000/svg">
<g clip-path="url(#clip0_4_383)">
<path d="M14.7846 0.120898C14.6153 -0.043537 14.3448 -0.0397975 14.1802 0.129445C13.8278 0.491917 12.054 2.38249 11.743 4.00643C11.5114 5.21607 11.9528 6.56985 12.3797 7.87913C12.6802 8.8011 12.9641 9.67194 12.9641 10.3639C12.9641 10.9672 12.7073 11.2928 12.4657 11.2928C12.2488 11.2928 12.0203 11.0104 12.0203 10.4708C12.0203 9.80507 12.0226 7.87112 10.4733 7.61443V3.09846C10.4733 2.86244 10.2998 2.69779 10.0637 2.69779H9.51173V2.2437C9.51173 2.00768 9.33816 1.84303 9.10214 1.84303H4.77492C4.5389 1.84303 4.32975 2.00768 4.32975 2.2437V2.69779H3.86673C3.63071 2.69779 3.42156 2.86244 3.42156 3.09846V14.1836H2.53117C2.29515 14.1836 2.086 14.3483 2.086 14.5843V15.5459C2.086 15.7819 2.29515 16 2.53117 16H11.3993C11.6353 16 11.8089 15.7819 11.8089 15.5459V14.5843C11.8089 14.3483 11.6353 14.1836 11.3993 14.1836H10.4733V8.48927C10.7939 8.60873 11.1656 9.02435 11.1656 10.4708C11.1656 11.6228 11.8394 12.1476 12.4612 12.1476C13.1337 12.1476 13.8167 11.535 13.8167 10.364C13.8167 9.53625 13.5135 8.60269 13.1912 7.61427C12.9692 6.93324 12.7435 6.23917 12.6227 5.58506C13.3049 5.43804 13.7592 5.11927 13.974 4.6342C14.3883 3.69818 13.6945 2.55852 13.5086 2.28024C13.8959 1.72347 14.3543 1.17663 14.793 0.725267C14.9576 0.556024 14.9538 0.285439 14.7846 0.120898ZM9.51173 7.13186C9.51173 7.36788 9.32037 7.55924 9.08435 7.55924H4.75713C4.52111 7.55924 4.32975 7.36788 4.32975 7.13186V4.08677C4.32975 3.85075 4.52111 3.65939 4.75713 3.65939H9.08435C9.32037 3.65939 9.51173 3.85075 9.51173 4.08677V7.13186ZM13.1922 4.28909C13.1014 4.49316 12.8805 4.64029 12.5346 4.7287C12.5336 4.5344 12.5483 4.34662 12.5826 4.16712C12.6437 3.84814 12.792 3.48454 12.9965 3.10513C13.1732 3.46451 13.3398 3.95739 13.1922 4.28909Z" fill="#0099FF"/>
</g>
<defs>
<clipPath id="clip0_4_383">
<rect width="16" height="16" fill="white" transform="translate(0.5)"/>
</clipPath>
</defs>
</svg>
