<svg width="17" height="16" viewBox="0 0 17 16" fill="none" xmlns="http://www.w3.org/2000/svg">
<g clip-path="url(#clip0_4_392)">
<path d="M14.487 1.46875C13.377 1.46875 12.4739 2.36956 12.4739 3.47684C12.4739 4.42319 13.1336 5.21872 14.0182 5.42997V6.35319C14.0182 7.08894 13.417 7.6875 12.6781 7.6875H9.0035V5.42997C9.88819 5.21872 10.5478 4.42319 10.5478 3.47684C10.5478 2.36956 9.64475 1.46875 8.53475 1.46875C7.42475 1.46875 6.52172 2.36956 6.52172 3.47684C6.52172 4.42316 7.18134 5.21869 8.066 5.42997V7.6875H2.98178V5.42997C3.86647 5.21872 4.52606 4.42319 4.52606 3.47684C4.52606 2.36956 3.62303 1.46875 2.51303 1.46875C1.40303 1.46875 0.5 2.36956 0.5 3.47684C0.5 4.42316 1.15962 5.21869 2.04428 5.42997V10.5701C1.15962 10.7813 0.5 11.5768 0.5 12.5232C0.5 13.6304 1.40303 14.5312 2.51303 14.5312C3.62303 14.5312 4.52606 13.6304 4.52606 12.5232C4.52606 11.5768 3.86644 10.7813 2.98178 10.57V8.625H8.066V10.57C7.18134 10.7813 6.52172 11.5768 6.52172 12.5232C6.52172 13.6304 7.42475 14.5312 8.53475 14.5312C9.64475 14.5312 10.5478 13.6304 10.5478 12.5232C10.5478 11.5768 9.88816 10.7813 9.0035 10.57V8.625H12.6781C13.934 8.625 14.9557 7.60588 14.9557 6.35319V5.42997C15.8404 5.21872 16.5 4.42319 16.5 3.47684C16.5 2.36956 15.597 1.46875 14.487 1.46875Z" fill="#0099FF"/>
</g>
<defs>
<clipPath id="clip0_4_392">
<rect width="16" height="16" fill="white" transform="translate(0.5)"/>
</clipPath>
</defs>
</svg>
