<svg width="32" height="33" viewBox="0 0 32 33" fill="none" xmlns="http://www.w3.org/2000/svg">
<g clip-path="url(#clip0_4_271)">
<path d="M31.7251 20.7058L30.7029 20.1655V21.2014L31.7251 20.7058Z" fill="#2EB3BD"/>
<path d="M8.61938 20.7956L5.31787 18.4729C4.83203 17.259 4.02295 16.1802 3.10645 15.6509C1.62085 14.7932 0.41626 15.7038 0.41626 17.6846C0.41626 19.6655 1.62085 21.9668 3.10645 22.8247C3.81055 23.2312 4.45142 23.24 4.93091 22.9263L8.61938 20.7956Z" fill="#23292E"/>
<path d="M21.1299 28.1082L17.8284 25.7854C17.3425 24.5715 16.5334 23.4927 15.6169 22.9636C14.1311 22.1057 12.9268 23.0164 12.9268 24.9973C12.9268 26.9783 14.1311 29.2795 15.6169 30.1372C16.3213 30.5439 16.9619 30.5525 17.4414 30.2388L21.1299 28.1082Z" fill="#23292E"/>
<path d="M31.2444 20.7173L31.1531 20.77C30.8623 19.2722 30.1257 17.8843 29.0227 16.7981L26.4646 14.2791L25.9307 13.2847C24.5884 10.7847 22.5737 8.70972 20.1143 7.29395L11.894 2.5625L1.42676 8.62988L1.24048 10.6228C0.425293 12.1968 0 13.9434 0 15.7158V16.0769C0 17.3677 0.687988 18.5605 1.80542 19.207L18.9504 29.1252C18.9651 29.1345 18.9795 29.144 18.9946 29.1526C19.0208 29.1677 19.0474 29.1821 19.074 29.1968L19.1624 29.2478C19.1943 29.2664 19.2268 29.2825 19.2595 29.2974C19.2676 29.301 19.2756 29.3044 19.2837 29.3081C19.3118 29.3201 19.3398 29.3308 19.3679 29.3403C19.3716 29.3416 19.3752 29.3435 19.3789 29.3447C20.4331 29.7974 21.6487 29.7327 22.6562 29.1504L30.5242 24.6025C31.4375 24.0747 32 23.0996 32 22.0447V21.1533C32 20.7656 31.5801 20.5232 31.2444 20.7173Z" fill="#63DBFF"/>
<path d="M31.2444 20.7173L22.001 26.0603C21.5657 26.3118 21.0767 26.428 20.5908 26.4111C20.2515 25.0771 19.5532 23.8481 18.5554 22.8657L15.9976 20.3464L15.4636 19.3523C14.1211 16.8521 12.1064 14.7771 9.64722 13.3616L1.42676 8.62988L1.24023 10.6228C0.425293 12.1968 0 13.9434 0 15.7158V16.0769C0 17.3677 0.687988 18.5605 1.80542 19.207L18.9502 29.1252C18.9651 29.1345 18.9795 29.144 18.9944 29.1526C19.0208 29.1677 19.0474 29.1821 19.074 29.1968L19.1624 29.2478C19.2332 29.2888 19.3057 29.3208 19.3789 29.3447C20.4331 29.7974 21.6487 29.7329 22.6562 29.1504L30.5242 24.6025C31.4375 24.0747 32 23.0996 32 22.0447V21.1533C32 20.7656 31.5801 20.5232 31.2444 20.7173Z" fill="#2EB3BD"/>
<path d="M18.3071 28.1035C18.3071 30.0845 17.1025 30.9951 15.6169 30.1372C14.1311 29.2796 12.9268 26.9783 12.9268 24.9973C12.9268 23.0164 14.1311 22.106 15.6169 22.9636C17.1025 23.8213 18.3071 26.1226 18.3071 28.1035Z" fill="#2E373D"/>
<path d="M16.9395 27.314C16.9395 28.2881 16.3474 28.7356 15.6169 28.314C14.8865 27.8921 14.2942 26.7607 14.2942 25.7869C14.2942 24.8127 14.8865 24.3652 15.6169 24.7869C16.3474 25.2087 16.9395 26.3401 16.9395 27.314Z" fill="#CECECE"/>
<path d="M16.3342 26.9647C16.3342 27.493 16.0132 27.7357 15.6169 27.5069C15.2207 27.2781 14.8997 26.6646 14.8997 26.1363C14.8997 25.608 15.2207 25.3653 15.6169 25.5941C16.0132 25.8228 16.3342 26.4363 16.3342 26.9647Z" fill="#627681"/>
<path d="M5.79663 20.791C5.79663 22.772 4.59204 23.6826 3.10645 22.8247C1.62085 21.967 0.41626 19.6658 0.41626 17.6846C0.41626 15.7038 1.62085 14.7932 3.10645 15.6509C4.59229 16.5088 5.79663 18.81 5.79663 20.791Z" fill="#2E373D"/>
<path d="M4.4292 20.0014C4.4292 20.9753 3.83691 21.4231 3.10645 21.0014C2.37598 20.5796 1.78394 19.4482 1.78394 18.4741C1.78394 17.5002 2.37598 17.0525 3.10645 17.4743C3.83691 17.896 4.4292 19.0276 4.4292 20.0014Z" fill="#CECECE"/>
<path d="M3.82373 19.6521C3.82373 20.1802 3.50269 20.4231 3.10645 20.1944C2.71021 19.9656 2.38916 19.3521 2.38916 18.8237C2.38916 18.2954 2.71021 18.0525 3.10645 18.2813C3.50269 18.51 3.82373 19.1238 3.82373 19.6521Z" fill="#627681"/>
<path d="M16.5527 20.0259L25.9597 14.5738L23.8547 11.4378C23.3135 10.6309 22.238 10.3843 21.3992 10.8743L15.5508 14.291C14.6316 14.8282 14.3108 16.0015 14.8289 16.9314L16.5527 20.0259Z" fill="#304E75"/>
<path d="M30.7134 19.3086L29.156 20.2163C28.9292 20.3486 28.7898 20.5916 28.7898 20.854V22.1418L31.1538 20.7769C31.0562 20.2727 30.9087 19.7808 30.7134 19.3086Z" fill="white"/>
<path d="M30.6958 21.0413L31.1536 20.7769C31.0562 20.2725 30.9087 19.7808 30.7131 19.3086L30.2573 19.5742C30.4495 20.0471 30.5962 20.5381 30.6958 21.0413Z" fill="#EF9910"/>
<path d="M21.2334 26.5044L22.9595 25.5078V24.6482C22.9595 24.2639 22.5435 24.0239 22.2107 24.2158L20.7273 25.0725C20.4243 25.2471 20.0515 25.2471 19.7488 25.0725L18.7446 24.4927C18.7446 25.2432 19.1455 25.9365 19.7959 26.3113L20.1326 26.5051C20.4734 26.7012 20.8928 26.7009 21.2334 26.5044Z" fill="white"/>
<path d="M20.1663 25.1941C20.0217 25.1833 19.8784 25.1472 19.7488 25.0725L18.7446 24.4927C18.7446 25.2432 19.1455 25.9365 19.7959 26.3113L20.1326 26.5051C20.2917 26.5967 20.468 26.6438 20.6453 26.6497C20.5349 26.1484 20.374 25.6611 20.1663 25.1941Z" fill="#EF9910"/>
<path d="M16.5527 20.0259L22.2107 24.2158L29.156 20.2163L25.9597 14.5737L16.5527 20.0259Z" fill="#2EB3BD"/>
<path d="M8.2583 16.4031L15.127 20.2805L13.1389 17.4524C12.5469 16.6106 11.7783 15.9077 10.887 15.3931L8.2583 13.8755V16.4031Z" fill="#243B58"/>
<path d="M25.1758 14.4321L23.1875 11.6045C22.9395 11.2517 22.6589 10.925 22.353 10.6247C22.0283 10.6198 21.6987 10.6994 21.3992 10.8742L20.1577 11.5996L25.1758 14.4321Z" fill="#59718B"/>
<path d="M7.3374 13.3438L4.41626 11.6573C3.6189 11.1968 2.59839 11.5401 2.24121 12.3887L2.03101 12.8877L7.3374 15.8833V13.3438Z" fill="#243B58"/>
</g>
<defs>
<clipPath id="clip0_4_271">
<rect width="32" height="32" fill="white" transform="translate(0 0.5)"/>
</clipPath>
</defs>
</svg>
