<svg width="25" height="24" viewBox="0 0 25 24" fill="none" xmlns="http://www.w3.org/2000/svg">
<g clip-path="url(#clip0_38_230)">
<path d="M23.8529 10.4388C23.8523 10.4383 23.8518 10.4377 23.8512 10.4372L14.0611 0.647461C13.6439 0.22998 13.089 0 12.4989 0C11.9087 0 11.3539 0.229797 10.9365 0.647278L1.15148 10.4321C1.14819 10.4354 1.14489 10.4388 1.1416 10.4421C0.284662 11.304 0.286127 12.7024 1.14581 13.5621C1.53857 13.955 2.05731 14.1826 2.61193 14.2064C2.63445 14.2086 2.65716 14.2097 2.68005 14.2097H3.07025V21.4144C3.07025 22.84 4.23022 24 5.65624 24H9.48644C9.87463 24 10.1896 23.6852 10.1896 23.2969V17.6484C10.1896 16.9979 10.7187 16.4687 11.3693 16.4687H13.6285C14.279 16.4687 14.8082 16.9979 14.8082 17.6484V23.2969C14.8082 23.6852 15.123 24 15.5113 24H19.3415C20.7676 24 21.9275 22.84 21.9275 21.4144V14.2097H22.2894C22.8793 14.2097 23.4341 13.9799 23.8518 13.5624C24.7124 12.7013 24.7128 11.3005 23.8529 10.4388Z" fill="white"/>
</g>
<defs>
<clipPath id="clip0_38_230">
<rect width="24" height="24" fill="white" transform="translate(0.5)"/>
</clipPath>
</defs>
</svg>
