<svg width="12" height="14" viewBox="0 0 12 14" fill="none" xmlns="http://www.w3.org/2000/svg">
<path d="M11.3596 6.34014C11.3233 6.32718 10.9763 6.20482 10.4001 6.05702V4.40024C10.4001 1.97395 8.42618 0 5.99988 0C3.57356 0 1.59962 1.97395 1.59962 4.40027V6.05705C1.02348 6.20484 0.676437 6.32721 0.640207 6.34017L0.368164 6.43746V13.0578L0.640207 13.1551C0.736703 13.1896 3.03705 14 5.99988 14C8.96271 14 11.2631 13.1896 11.3596 13.1551L11.6316 13.0578V6.43743L11.3596 6.34014ZM2.41993 4.40027C2.41993 2.42627 4.02591 0.820312 5.99988 0.820312C7.97386 0.820312 9.57984 2.42627 9.57984 4.40027V5.86791C9.25062 5.80016 8.88366 5.7342 8.48609 5.67703V4.40027C8.48609 3.02936 7.37079 1.91406 5.99988 1.91406C4.62898 1.91406 3.51368 3.02936 3.51368 4.40027V5.67703C3.1161 5.7342 2.74915 5.80016 2.41993 5.86791V4.40027ZM7.66577 5.57791C7.14419 5.52691 6.58504 5.49522 5.99988 5.49522C5.41473 5.49522 4.8556 5.52691 4.33399 5.57791V4.40027C4.33399 3.48171 5.08132 2.73438 5.99988 2.73438C6.91847 2.73438 7.66577 3.48171 7.66577 4.40027V5.57791ZM10.8113 12.4701C10.1301 12.6772 8.24532 13.1797 5.99988 13.1797C3.75425 13.1797 1.86945 12.6771 1.18848 12.4701V7.02486C1.86835 6.81767 3.74867 6.31553 5.99988 6.31553C8.24552 6.31553 10.1303 6.81811 10.8113 7.02513V12.4701Z" fill="#0099FF"/>
<path d="M4.76953 8.99554C4.76953 9.53025 5.11245 9.98615 5.58984 10.1555V11.32H6.41016V10.1555C6.88755 9.98615 7.23047 9.53025 7.23047 8.99554C7.23047 8.31706 6.67848 7.76508 6 7.76508C5.32152 7.76508 4.76953 8.31706 4.76953 8.99554ZM6.41016 8.99554C6.41016 9.2217 6.22616 9.4057 6 9.4057C5.77384 9.4057 5.58984 9.2217 5.58984 8.99554C5.58984 8.76938 5.77384 8.58539 6 8.58539C6.22616 8.58539 6.41016 8.76938 6.41016 8.99554Z" fill="#0099FF"/>
</svg>
