<svg width="24" height="24" viewBox="0 0 24 24" fill="none" xmlns="http://www.w3.org/2000/svg">
<path d="M21.1881 10.8688C21.126 10.8466 20.5311 10.6368 19.5434 10.3835V7.54327C19.5434 3.38391 16.1594 0 12.0001 0C7.84067 0 4.45677 3.38391 4.45677 7.54331V10.3835C3.46911 10.6369 2.87417 10.8466 2.81206 10.8689L2.3457 11.0356V22.3849L2.81206 22.5517C2.97748 22.6107 6.92094 24 12.0001 24C17.0792 24 21.0227 22.6107 21.1881 22.5516L21.6545 22.3848V11.0356L21.1881 10.8688ZM5.86302 7.54331C5.86302 4.15931 8.61613 1.40625 12.0001 1.40625C15.384 1.40625 18.1371 4.15931 18.1371 7.54331V10.0593C17.5728 9.94313 16.9437 9.83006 16.2621 9.73205V7.54331C16.2621 5.19319 14.3502 3.28125 12.0001 3.28125C9.64995 3.28125 7.73802 5.19319 7.73802 7.54331V9.73205C7.05645 9.83006 6.42739 9.94313 5.86302 10.0593V7.54331ZM14.8559 9.56213C13.9618 9.4747 13.0032 9.42037 12.0001 9.42037C10.997 9.42037 10.0385 9.4747 9.14427 9.56213V7.54331C9.14427 5.96864 10.4254 4.6875 12.0001 4.6875C13.5748 4.6875 14.8559 5.96864 14.8559 7.54331V9.56213ZM20.2482 21.3773C19.0804 21.7323 15.8494 22.5938 12.0001 22.5938C8.15042 22.5938 4.91933 21.7322 3.75195 21.3773V12.0426C4.91745 11.6874 8.14086 10.8266 12.0001 10.8266C15.8497 10.8266 19.0808 11.6882 20.2482 12.0431V21.3773Z" fill="#0099FF"/>
<path d="M9.89062 15.421C9.89062 16.3376 10.4785 17.1191 11.2969 17.4094V19.4058H12.7031V17.4094C13.5215 17.1191 14.1094 16.3376 14.1094 15.421C14.1094 14.2579 13.1631 13.3116 12 13.3116C10.8369 13.3116 9.89062 14.2579 9.89062 15.421ZM12.7031 15.421C12.7031 15.8087 12.3877 16.1241 12 16.1241C11.6123 16.1241 11.2969 15.8087 11.2969 15.421C11.2969 15.0333 11.6123 14.7178 12 14.7178C12.3877 14.7178 12.7031 15.0333 12.7031 15.421Z" fill="#0099FF"/>
</svg>
