<svg width="16" height="16" viewBox="0 0 16 16" fill="none" xmlns="http://www.w3.org/2000/svg">
<g clip-path="url(#clip0_95_915)">
<path d="M11.5742 13.3812C11.7379 13.0252 12.0296 12.7642 12.3821 12.6412V11.3125C12.3821 10.5371 13.013 9.90625 13.7884 9.90625H14.5938C14.7581 9.90625 14.9158 9.93484 15.0625 9.98687V1.40625C15.0625 0.630844 14.4317 0 13.6562 0H4.28125C3.50584 0 2.875 0.630844 2.875 1.40625V2.09375H10.9375C11.9714 2.09375 12.8125 2.93488 12.8125 3.96875V8.34375C12.8125 9.37762 11.9714 10.2188 10.9375 10.2188H2.875V14.5938C2.875 15.3692 3.50584 16 4.28125 16H12.7407L11.7841 14.8839C11.4224 14.4619 11.3419 13.8861 11.5742 13.3812Z" fill="#0099FF"/>
<path d="M15.5303 13.5H15.0625V11.3125C15.0625 11.0536 14.8526 10.8438 14.5937 10.8438H13.7883C13.5295 10.8438 13.3196 11.0536 13.3196 11.3125V13.5H12.8517C12.4513 13.5 12.2352 13.9697 12.4958 14.2738L13.8351 15.8363C14.0222 16.0546 14.3598 16.0546 14.5469 15.8363L15.8862 14.2738C16.1468 13.9697 15.9308 13.5 15.5303 13.5Z" fill="#0099FF"/>
<path d="M6.00047 4.90625H5.42847C5.42912 5.28816 5.43015 5.91256 5.43015 6.15278C5.43015 6.43913 5.43197 7.03647 5.43315 7.40472C5.63615 7.40356 5.887 7.40175 6.0209 7.39941C6.65922 7.38825 6.94994 6.74716 6.94994 6.15625C6.94994 5.55197 6.70053 4.90625 6.00047 4.90625Z" fill="#0099FF"/>
<path d="M2.96611 4.90625H2.40942C2.41002 5.11312 2.41067 5.36559 2.41067 5.47563C2.41067 5.60538 2.4118 5.84859 2.4128 6.04712C2.60546 6.04609 2.83914 6.04503 2.96611 6.04503C3.28411 6.04503 3.55277 5.78428 3.55277 5.47566C3.55277 5.16703 3.28411 4.90625 2.96611 4.90625Z" fill="#0099FF"/>
<path d="M11.875 8.34375V3.96875C11.875 3.45097 11.4553 3.03125 10.9375 3.03125H0.9375C0.419719 3.03125 0 3.45097 0 3.96875V8.34375C0 8.86153 0.419719 9.28125 0.9375 9.28125H10.9375C11.4553 9.28125 11.875 8.86153 11.875 8.34375ZM2.96616 6.67C2.83862 6.67 2.60178 6.67109 2.40853 6.67212V7.71875C2.40853 7.89134 2.26863 8.03125 2.09603 8.03125C1.92344 8.03125 1.78353 7.89134 1.78353 7.71875V4.59475C1.78328 4.51169 1.81609 4.43197 1.87469 4.37316C1.93331 4.31434 2.01297 4.28128 2.09603 4.28128H2.96616C3.63425 4.28128 4.17781 4.81709 4.17781 5.47566C4.17781 6.13422 3.63428 6.67 2.96616 6.67ZM7.17672 7.44203C6.89512 7.80953 6.48853 8.01631 6.03175 8.02431C5.78013 8.02872 5.14956 8.03116 5.12284 8.03125C5.12244 8.03125 5.12206 8.03125 5.12166 8.03125C5.03919 8.03125 4.96006 7.99866 4.9015 7.94053C4.84269 7.88212 4.80947 7.80275 4.80916 7.71987C4.80912 7.70853 4.80509 6.58241 4.80509 6.15278C4.80509 5.79647 4.80284 4.59434 4.80284 4.59431C4.80269 4.51134 4.83553 4.43169 4.89416 4.37297C4.95278 4.31425 5.03234 4.28125 5.11531 4.28125H6.00037C6.94212 4.28125 7.57484 5.03475 7.57484 6.15625C7.57484 6.65031 7.43347 7.10694 7.17672 7.44203ZM9.77894 4.90625H8.82484V5.81416H9.67831C9.85091 5.81416 9.99081 5.95406 9.99081 6.12666C9.99081 6.29925 9.85091 6.43916 9.67831 6.43916H8.82484V7.71875C8.82484 7.89134 8.68494 8.03125 8.51234 8.03125C8.33975 8.03125 8.19984 7.89134 8.19984 7.71875V4.59375C8.19984 4.51087 8.23278 4.43138 8.29138 4.37278C8.34997 4.31419 8.42947 4.28125 8.51234 4.28125H9.77894C9.95153 4.28125 10.0914 4.42116 10.0914 4.59375C10.0914 4.76634 9.95153 4.90625 9.77894 4.90625Z" fill="#0099FF"/>
</g>
<defs>
<clipPath id="clip0_95_915">
<rect width="16" height="16" fill="white"/>
</clipPath>
</defs>
</svg>
