<svg width="24" height="24" viewBox="0 0 24 24" fill="none" xmlns="http://www.w3.org/2000/svg">
<g clip-path="url(#clip0_75_2048)">
<path d="M0.0483906 23.0812C-0.0219219 23.3251 0.0483906 23.5922 0.226369 23.7704C0.357656 23.9015 0.540578 23.9766 0.723317 23.9766C0.788869 23.9766 0.854604 23.9672 0.915578 23.9484L7.46856 22.0781L1.91863 16.5282L0.0483906 23.0812Z" fill="#0099FF"/>
<path d="M0.723255 23.9999C0.530994 23.9999 0.348255 23.9249 0.212391 23.789C0.0248909 23.6015 -0.0454216 23.3296 0.0294685 23.0765L1.91381 16.4858L7.52013 22.0922L0.920094 23.9717C0.854542 23.9906 0.788807 23.9999 0.723255 23.9999ZM1.93267 16.5703L0.0717659 23.0859C0.00603099 23.325 0.0717659 23.5781 0.245167 23.7515C0.371693 23.878 0.545093 23.9483 0.723255 23.9483C0.784229 23.9483 0.849781 23.939 0.910755 23.9203L7.42638 22.0594L1.93267 16.5703Z" fill="#0099FF"/>
<path d="M23.3591 3.61871L20.3826 0.642151C19.9796 0.243713 19.4546 0.0234375 18.8873 0.0234375C18.3248 0.0234375 17.7951 0.243713 17.3967 0.637573L15.906 2.12805L21.8639 8.08594L23.3546 6.59528C23.753 6.19684 23.9685 5.66711 23.9685 5.10461C23.9733 4.54211 23.753 4.01715 23.3591 3.61871Z" fill="#0099FF"/>
<path d="M21.8686 8.11871L15.8779 2.12805L17.3825 0.623474C17.7857 0.220276 18.32 0 18.8873 0C19.4591 0 19.9936 0.220276 20.392 0.623474L23.3686 3.60004C23.7716 4.00305 23.9919 4.53754 23.9919 5.10461C23.9919 5.67664 23.7716 6.21094 23.3686 6.60938L21.8686 8.11871ZM15.9435 2.12805L21.8686 8.05316L23.3404 6.58118C23.7341 6.1875 23.9498 5.66711 23.9498 5.10938C23.9498 4.55164 23.7341 4.03125 23.3404 3.63757L20.3638 0.65625C19.9702 0.262573 19.445 0.046875 18.8873 0.046875C18.3295 0.046875 17.8091 0.262573 17.4155 0.65625L15.9435 2.12805Z" fill="#0099FF"/>
<path d="M2.70947 15.3288L14.9167 3.12134L20.8763 9.08087L8.66901 21.2883L2.70947 15.3288Z" fill="#0099FF"/>
<path d="M8.66858 21.3234L2.67334 15.3281L14.9171 3.08899L20.9077 9.07965L8.66858 21.3234ZM2.74365 15.3281L8.66858 21.2531L20.842 9.07965L14.9171 3.15472L2.74365 15.3281Z" fill="#0099FF"/>
</g>
<defs>
<clipPath id="clip0_75_2048">
<rect width="24" height="24" fill="white"/>
</clipPath>
</defs>
</svg>
