<svg width="24" height="24" viewBox="0 0 24 24" fill="none" xmlns="http://www.w3.org/2000/svg">
<path d="M4.72738 24H19.2728C19.8753 24 20.3637 23.5116 20.3637 22.9091V10.5455C20.3637 9.94298 19.8753 9.45455 19.2728 9.45455H18.1819V6.18182C18.1819 2.77316 15.4088 0 12.0001 0C8.59146 0 5.81829 2.77316 5.81829 6.18182V9.45455H4.72738C4.12491 9.45455 3.63647 9.94298 3.63647 10.5455V22.9091C3.63647 23.5116 4.12491 24 4.72738 24ZM13.091 17.0899V18.5455C13.091 19.1479 12.6026 19.6364 12.0001 19.6364C11.3976 19.6364 10.9092 19.1479 10.9092 18.5455V17.0899C10.4679 16.7579 10.1819 16.23 10.1819 15.6364C10.1819 14.6338 10.9976 13.8182 12.0001 13.8182C13.0027 13.8182 13.8183 14.6338 13.8183 15.6364C13.8183 16.23 13.5323 16.7579 13.091 17.0899ZM8.00011 6.18182C8.00011 3.97622 9.79451 2.18182 12.0001 2.18182C14.2057 2.18182 16.0001 3.97622 16.0001 6.18182V9.45455H8.00011V6.18182Z" fill="#0099FF"/>
</svg>
