<svg width="32" height="33" viewBox="0 0 32 33" fill="none" xmlns="http://www.w3.org/2000/svg">
<path d="M10.3523 17.0318C10.3523 14.8151 9.00733 12.24 7.34791 11.2801C6.61085 10.8538 5.93628 10.8188 5.41358 11.1052V11.1047C5.41358 11.1047 3.82666 12.0049 3.75562 12.0541L3.7439 12.0607L3.74439 12.0617C3.17383 12.4619 2.81836 13.2836 2.81836 14.4225C2.81836 16.639 4.16333 19.2141 5.82276 20.174C6.54004 20.5891 7.19825 20.6331 7.71461 20.3711L7.71485 20.3719L7.72755 20.3648C7.76173 20.3469 9.24415 19.504 9.24415 19.504L9.24366 19.5027C9.91993 19.1583 10.3523 18.288 10.3523 17.0318Z" fill="#2E373D"/>
<path d="M27.1482 6.26707L22.4925 8.94344C20.7808 9.9273 19.7254 11.7531 19.7254 13.7301V16.0702L17.3308 14.6746L18.4759 14.0232V12.329L18.8089 12.1362C19.4202 11.8317 19.823 11.2032 19.823 10.498C19.823 9.80793 19.4556 9.17045 18.8594 8.82554L12.1377 4.93708C11.459 4.54447 10.689 4.33777 9.90504 4.33777C8.99 4.33777 8.1233 4.61786 7.40065 5.10881L4.45216 6.81453C3.56251 7.25166 2.82862 7.98014 2.38916 8.90137L1.03345 9.67265C0.393799 10.0425 0 10.726 0 11.4659V14.156C0 14.9547 0.425294 15.693 1.11572 16.0922L7.92579 20.0318L8.7007 19.5909L14.5618 23.4875C16.2439 24.8451 18.5852 25.0298 20.4588 23.9527L26.9261 20.2355V20.235C28.3204 19.4329 29.3174 17.9386 29.3174 16.0976V7.52588C29.3174 6.41042 28.1138 5.71203 27.1482 6.26707Z" fill="#63DBFF"/>
<path d="M18.4758 12.329L17.3162 13C17.0063 13.3794 16.8242 13.8622 16.8242 14.3794L17.3308 14.6746L18.4758 14.0232V12.329Z" fill="#2EB3BD"/>
<path d="M30.69 28.3039C30.69 26.0871 29.345 23.512 27.6859 22.5522C26.9483 22.1256 26.2733 22.0906 25.7503 22.3773L24.3179 23.1975C24.2383 23.2339 24.1622 23.2775 24.0894 23.3281L24.0816 23.3325L24.0818 23.3332C23.5115 23.7339 23.1561 24.5553 23.1561 25.6943C23.1561 27.911 24.501 30.4861 26.1605 31.446C26.8778 31.8609 27.536 31.9054 28.0526 31.6439H28.0528C28.0977 31.6209 28.1422 31.5962 28.1849 31.5688L29.5819 30.776V30.7757C30.2581 30.4308 30.69 29.56 30.69 28.3039Z" fill="#23292E"/>
<path d="M29.1649 29.1702C29.1649 31.387 27.8196 32.4058 26.1605 31.4459C24.501 30.486 23.1561 27.9109 23.1561 25.6942C23.1561 23.4775 24.501 22.4586 26.1605 23.4185C27.8196 24.3784 29.1649 26.9535 29.1649 29.1702Z" fill="#2E373D"/>
<path d="M27.6375 28.2866C27.6375 29.3767 26.9761 29.8776 26.1605 29.4055C25.3445 28.9337 24.6832 27.6675 24.6832 26.5777C24.6832 25.4877 25.3445 24.987 26.1605 25.4589C26.9761 25.9307 27.6375 27.1969 27.6375 28.2866Z" fill="#CECECE"/>
<path d="M26.9615 27.8958C26.9615 28.4868 26.6028 28.7586 26.1605 28.5027C25.7178 28.2466 25.3592 27.5599 25.3592 26.9689C25.3592 26.3777 25.7178 26.1059 26.1605 26.362C26.6028 26.6179 26.9615 27.3045 26.9615 27.8958Z" fill="#2E373D"/>
<path d="M29.1649 29.1702C29.1649 31.387 27.8196 32.4058 26.1605 31.4459C24.501 30.486 23.1561 27.9109 23.1561 25.6942C23.1561 23.4775 24.501 22.4586 26.1605 23.4185C27.8196 24.3784 29.1649 26.9535 29.1649 29.1702Z" fill="#2E373D"/>
<path d="M27.6375 28.2866C27.6375 29.3767 26.9761 29.8776 26.1605 29.4055C25.3445 28.9337 24.6832 27.6675 24.6832 26.5777C24.6832 25.4877 25.3445 24.987 26.1605 25.4589C26.9761 25.9307 27.6375 27.1969 27.6375 28.2866Z" fill="#CECECE"/>
<path d="M26.9615 27.8958C26.9615 28.4868 26.6028 28.7586 26.1605 28.5027C25.7178 28.2466 25.3592 27.5599 25.3592 26.9689C25.3592 26.3777 25.7178 26.1059 26.1605 26.362C26.6028 26.6179 26.9615 27.3045 26.9615 27.8958Z" fill="#2E373D"/>
<path d="M17.4795 16.6553C17.0669 16.3454 16.8242 15.8589 16.8242 15.3422V14.3794C16.8242 13.8613 17.0098 13.3799 17.3208 13.0002L17.3191 12.9983L15.5408 14.0272C15.3689 14.1456 15.1753 14.2363 14.9646 14.2911C14.0054 14.5399 13.3354 15.4068 13.3354 16.3995V17.4592C13.3354 17.8953 13.6038 18.2862 14.01 18.4423L19.7254 20.125V18.4858L17.4795 16.6553Z" fill="#23868E"/>
<path d="M14.01 18.4423C13.6038 18.2862 13.3355 17.8953 13.3355 17.4592V16.3995C13.3355 15.4068 14.0056 14.5399 14.9646 14.2911C15.7713 14.082 16.3345 13.3528 16.3345 12.5181C16.3345 11.8281 15.9671 11.1906 15.3709 10.8457L8.64918 6.95747C7.97047 6.56461 7.20045 6.35791 6.41651 6.35791C4.6836 6.35791 3.12402 7.36036 2.38892 8.90145L3.45996 8.29211C4.09937 7.92225 4.88721 7.92225 5.52662 8.29211L6.81177 9.0355C7.99635 9.72092 8.95753 10.7351 9.57911 11.9558C10.0874 12.9543 10.3526 14.0592 10.3526 15.1803V18.0585L13.3355 19.7782L19.7246 21.7026L19.7256 20.125L14.01 18.4423Z" fill="#2EB3BD"/>
<path d="M14.5349 3.31659L11.2329 1.40637C10.9478 1.2415 10.5967 1.2415 10.3115 1.40637L7.00952 3.31659C6.88135 3.39096 6.81714 3.52085 6.81714 3.65074V5.88338C6.81714 6.01327 6.88135 6.14316 7.00952 6.21728L10.3115 8.1275C10.5967 8.29238 10.9478 8.29262 11.2329 8.1275L14.5349 6.21728C14.6607 6.14463 14.7229 6.01816 14.7256 5.89096H14.7271V5.88509C14.7271 5.88386 14.7271 5.88264 14.7271 5.88117V3.65882C14.7297 3.52623 14.666 3.39243 14.5349 3.31659Z" fill="#2E373D"/>
<path d="M7.00952 3.98489L10.3115 5.89536C10.5967 6.06023 10.9478 6.06023 11.2329 5.89536L14.5349 3.98489C14.7918 3.83641 14.7918 3.46532 14.5349 3.31684L11.2329 1.40661C10.9478 1.24174 10.5967 1.24174 10.3115 1.40661L7.00952 3.31659C6.75293 3.46532 6.75293 3.83641 7.00952 3.98489Z" fill="#627681"/>
<path d="M7.92579 20.0318V16.5606C7.92579 15.4398 7.6609 14.3346 7.15235 13.3361C6.53077 12.1154 5.56959 11.1012 4.38526 10.4161L3.1001 9.67242C2.46045 9.30255 1.67285 9.30255 1.0332 9.67242C0.393799 10.0425 0 10.726 0 11.466V14.156C0 14.9547 0.425294 15.693 1.11572 16.0922L7.92579 20.0318Z" fill="#2EB3BD"/>
<path d="M27.5362 27.4476C27.5362 26.6304 27.3428 25.8246 26.9722 25.0969C26.5191 24.2067 25.8184 23.4672 24.9549 22.9677L24.0179 22.4259C23.5516 22.1561 22.9774 22.1561 22.511 22.4259C22.045 22.6954 21.7576 23.1937 21.7576 23.7331V25.7405C21.7576 26.2537 22.1351 26.6886 22.6424 26.7598L27.5362 27.4476Z" fill="#2EB3BD"/>
<path d="M30.5596 23.0389C30.1065 22.1487 29.4058 21.4092 28.5423 20.9097L27.6053 20.3679C27.139 20.0981 26.5645 20.0981 26.0985 20.3679L22.5113 22.4256C22.9776 22.156 23.5518 22.156 24.0179 22.4259L24.9549 22.9677C25.8184 23.4672 26.5191 24.2067 26.9725 25.0969C27.3431 25.8248 27.5362 26.6304 27.5362 27.4476L31.1236 25.3897C31.1236 24.5724 30.9302 23.7669 30.5596 23.0389Z" fill="#63DBFF"/>
<path d="M29.2 6.94787C29.1248 6.7737 29.0169 6.61959 28.8858 6.49117C28.7544 6.36274 28.5999 6.26 28.4314 6.18833C28.0947 6.04523 27.7029 6.02688 27.3318 6.17757C27.27 6.20276 27.2088 6.23261 27.1482 6.2671L22.4924 8.94347C21.8506 9.31235 21.301 9.79963 20.8647 10.3691C20.1377 11.318 19.7253 12.4946 19.7253 13.7302V21.611C19.7253 22.7647 19.333 23.7813 18.6978 24.5775C19.3062 24.4777 19.9031 24.2722 20.4587 23.9528L26.926 20.2355V20.2351C28.3201 19.4327 29.3172 17.9383 29.3172 16.0976V7.5259C29.3174 7.31676 29.2752 7.12228 29.2 6.94787Z" fill="#2EB3BD"/>
<path d="M19.7344 7.91432C19.7339 7.93976 19.7319 7.96496 19.7295 7.9904C19.751 7.78125 19.7012 7.5633 19.5703 7.37616L17.2776 4.10072C16.9854 3.68316 16.4231 3.55914 15.9829 3.81501L12.2231 6.00043C12.0032 6.12836 11.9036 6.35561 11.9182 6.57577L11.916 6.57528V8.42019L11.9182 8.42044C11.9236 8.64329 12.0442 8.86271 12.2786 8.96912L16.6802 10.963C17.3499 11.2663 18.1245 11.2274 18.7605 10.8585L19.2822 10.5557C19.5818 10.3818 19.7395 10.0653 19.7312 9.74505L19.7346 9.74554V7.91457L19.7344 7.91432Z" fill="#2E373D"/>
<path d="M12.2234 6.00025L15.9829 3.81483C16.4231 3.55896 16.9854 3.68322 17.2776 4.10054L19.5703 7.37623C19.8755 7.81214 19.7425 8.41683 19.2825 8.68371L18.7608 8.98655C18.1248 9.35568 17.3501 9.39457 16.6804 9.09125L12.2788 7.09712C11.8218 6.89017 11.7898 6.25245 12.2234 6.00025Z" fill="#627681"/>
<path d="M23.7 8.24927C24.1512 8.51028 24.429 8.99242 24.429 9.51419V16.4804C24.429 17.3381 24.8858 18.1309 25.627 18.5597V20.9944L23.7 22.0898V8.24927Z" fill="#23868E"/>
<path d="M25.7249 15.7312V8.76517C25.7249 8.24339 25.4471 7.76101 24.9959 7.50024L23.7 8.24927C24.1512 8.51027 24.429 8.99242 24.429 9.51419V16.4804C24.429 17.3381 24.8858 18.1306 25.627 18.5597V20.9819L26.9232 20.2451V17.8104C26.1817 17.3816 25.7249 16.589 25.7249 15.7312Z" fill="#63DBFF"/>
<path d="M25.627 18.5597L26.9232 17.8104V20.2451L25.627 20.9944V18.5597Z" fill="#EDEDED"/>
<path d="M31.6507 3.13281C31.6507 2.71353 31.3963 2.22699 31.0826 2.04548C30.9444 1.96549 30.8196 1.96182 30.721 2.01441C30.7059 2.02249 30.6902 2.02934 30.6766 2.0401L28.3731 3.36936L29.1126 4.94127L31.4027 3.61593V3.61569C31.5523 3.56578 31.6507 3.39308 31.6507 3.13281Z" fill="#2E373D"/>
<path d="M29.2984 4.48998C29.2984 4.90901 29.0443 5.10152 28.7305 4.92002C28.4168 4.73875 28.1627 4.25196 28.1627 3.83293C28.1627 3.4139 28.4168 3.22114 28.7305 3.40265C29.0443 3.58415 29.2984 4.07094 29.2984 4.48998Z" fill="#2E373D"/>
<path d="M24.168 9.11418C24.168 7.57406 24.9881 6.15087 26.3194 5.38081L26.7566 5.11149C27.3912 4.74432 28.1141 4.83776 28.6299 5.22034L29.1126 4.94123L29.1121 4.9405C29.7125 4.55547 28.8621 2.94172 28.3167 3.40478V3.40454L27.9371 3.62396C27.3003 3.99211 26.5162 3.99285 25.879 3.62543L25.8782 3.62616C25.4012 3.40112 24.8213 3.38937 24.2996 3.69099C22.3992 4.72572 22.0872 6.98844 20.2705 8.02489C19.6861 8.33751 20.3343 9.83311 20.9522 9.62616V9.62641C21.2107 9.4767 21.4693 9.32724 21.7278 9.17753C22.3553 8.81476 23.1282 8.81599 23.7544 9.18071L24.4058 9.56012C24.2659 9.46594 24.168 9.30743 24.168 9.11418Z" fill="#63DBFF"/>
<path d="M21.2002 9.14331C21.2002 8.72428 20.9458 8.23749 20.6321 8.05598C20.4939 7.97599 20.3689 7.97232 20.2705 8.02491L20.2703 8.02516C20.2554 8.03323 17.9485 9.36493 17.9485 9.36493C17.8057 9.41997 17.7122 9.58974 17.7122 9.84341C17.7122 10.2624 17.9663 10.7492 18.28 10.9307C18.4373 11.0215 18.5793 11.0186 18.6821 10.9403L20.9522 9.62667V9.62643C21.1018 9.57628 21.2002 9.40358 21.2002 9.14331Z" fill="#2E373D"/>
<path d="M18.8479 10.5005C18.8479 10.9195 18.5938 11.112 18.28 10.9308C17.9663 10.7493 17.7122 10.2625 17.7122 9.84343C17.7122 9.4244 17.9663 9.23164 18.28 9.41315C18.5938 9.59465 18.8479 10.0814 18.8479 10.5005Z" fill="#627681"/>
<path d="M20.6324 11.3346C19.18 11.1656 22.0091 8.56918 22.2774 8.40945C22.5074 8.27246 22.6431 8.02197 22.9392 8.28151C23.3098 8.60612 22.482 9.12226 22.3169 9.27662C21.9021 9.66434 21.0816 10.2783 20.9417 10.8706C21.0281 11.079 20.855 11.3346 20.6324 11.3346C20.6966 11.3346 20.5244 11.3346 20.6324 11.3346Z" fill="#2E373D"/>
<path d="M28.1629 5.80821C27.608 5.80821 27.9495 5.26467 28.1517 5.10811C28.4009 4.91511 28.8528 4.80405 29.1465 4.69422C29.7972 4.45131 30.7205 4.06457 31.4305 4.22871C31.6714 4.28448 32.1934 4.48752 31.9253 4.83708C31.7481 5.06849 31.2688 4.87132 31.0083 4.88062C30.5472 4.89701 30.035 5.09784 29.6038 5.24828C29.1761 5.3975 28.605 5.80821 28.1629 5.80821Z" fill="#2E373D"/>
<path d="M24.168 9.11427C24.168 9.52939 24.6165 9.78893 24.9754 9.58124L28.9241 7.28061C29.1688 7.13898 29.3196 6.87748 29.3196 6.59445C29.3196 5.27645 27.8956 4.45282 26.7567 5.11158L26.3194 5.3809C24.9881 6.15096 24.168 7.57415 24.168 9.11427Z" fill="#CECECE"/>
<path d="M27.6082 5.47266C28.1468 5.47266 28.7279 5.90147 28.7279 6.59448C28.7279 6.66542 28.6898 6.73171 28.6265 6.76816L24.761 9.02036C24.7938 7.7322 25.4981 6.54066 26.6292 5.88606C26.9359 5.69697 27.231 5.47266 27.6082 5.47266Z" fill="#EDEDED"/>
</svg>
