<svg width="24" height="24" viewBox="0 0 24 24" fill="none" xmlns="http://www.w3.org/2000/svg">
<g clip-path="url(#clip0_75_2447)">
<path d="M11.2968 2.8125C8.58923 2.96796 6.05121 4.01917 4.02661 5.82385L7.02899 8.82605C7.68964 8.59149 8.40045 8.46332 9.14056 8.46332C9.89734 8.46332 10.6235 8.59717 11.2968 8.84198V2.8125Z" fill="#0099FF"/>
<path d="M14.0264 10.7741L19.7058 5.59241C17.7272 3.92926 15.2928 2.96118 12.7031 2.8125V9.56433C13.1993 9.90344 13.645 10.3112 14.0264 10.7741Z" fill="#0099FF"/>
<path d="M0 14.7917V15.4948H2.8125V14.7917C2.8125 12.5708 3.96259 10.6138 5.69824 9.48419L3.03241 6.81836C1.07227 9.01727 0 11.8219 0 14.7917Z" fill="#0099FF"/>
<path d="M20.2712 15.4949H24V14.7917C24 13.7693 23.8724 12.7666 23.6259 11.8013L20.2712 15.4949Z" fill="#0099FF"/>
<path d="M11.9997 15.5183C11.2484 15.5183 10.542 15.8109 10.0108 16.3421C8.91437 17.4387 8.91437 19.2229 10.0108 20.3195C10.542 20.8507 11.2484 21.1433 11.9997 21.1433C12.7508 21.1433 13.4572 20.8507 13.9884 20.3195C15.085 19.2229 15.085 17.4387 13.9884 16.3421C13.4572 15.8109 12.7508 15.5183 11.9997 15.5183Z" fill="#0099FF"/>
<path d="M21.0087 6.30713L12.4302 14.1338C13.3942 14.2308 14.2883 14.6533 14.9827 15.3476C15.6938 16.0588 16.0969 16.963 16.1932 17.8931L23.9999 9.29742V6.30713H21.0087Z" fill="#0099FF"/>
</g>
<defs>
<clipPath id="clip0_75_2447">
<rect width="24" height="24" fill="white"/>
</clipPath>
</defs>
</svg>
