<svg width="24" height="24" viewBox="0 0 24 24" fill="none" xmlns="http://www.w3.org/2000/svg">
<g clip-path="url(#clip0_75_1974)">
<path d="M23.8625 8.76328C23.7451 8.62009 23.5699 8.53651 23.3862 8.53651H21.0504C20.474 7.01616 19.7231 5.52653 18.8695 4.96423C15.9167 3.02169 8.0847 3.02169 5.13195 4.96423C4.27777 5.52714 3.5299 7.01862 2.95041 8.53651H0.614623C0.429039 8.53651 0.254516 8.62009 0.138372 8.76328C0.0216136 8.90585 -0.0250898 9.09451 0.0130104 9.2758L0.358984 10.9522C0.417978 11.238 0.66993 11.442 0.960597 11.442H1.65254C0.984563 12.2127 0.660712 13.183 0.656411 14.154C0.652109 15.3535 1.10747 16.4376 1.94014 17.2045C1.94936 17.2125 1.95857 17.218 1.96718 17.226V19.5717C1.96718 20.0799 2.38013 20.4935 2.88895 20.4935H5.04345C5.55228 20.4935 5.96523 20.0799 5.96523 19.5717V18.629H18.035V19.5717C18.035 20.0799 18.4479 20.4935 18.9568 20.4935H21.1113C21.6188 20.4935 22.033 20.0799 22.033 19.5717V17.2721C22.9167 16.4628 23.3389 15.3492 23.3444 14.2375C23.3481 13.2334 23.0095 12.2274 22.3022 11.4408H23.0402C23.3321 11.4408 23.5841 11.2368 23.6418 10.9504L23.9884 9.27457C24.0241 9.09451 23.9792 8.90708 23.8625 8.76328ZM6.14406 6.50364C8.49766 4.9544 15.5026 4.9544 17.8549 6.50364C18.3121 6.80353 18.9002 8.01601 19.4392 9.50072H4.56106C5.09876 8.01662 5.68685 6.80476 6.14406 6.50364ZM3.38733 14.385C3.38733 13.3833 4.19972 12.5722 5.20077 12.5722C6.20305 12.5722 7.01421 13.3833 7.01421 14.385C7.01421 15.3867 6.20305 16.1985 5.20077 16.1985C4.19972 16.1985 3.38733 15.3867 3.38733 14.385ZM18.8234 16.1985C17.8224 16.1985 17.01 15.3867 17.01 14.385C17.01 13.3833 17.8224 12.5722 18.8234 12.5722C19.8257 12.5722 20.6368 13.3833 20.6368 14.385C20.6368 15.3867 19.8245 16.1985 18.8234 16.1985Z" fill="#0099FF"/>
</g>
<defs>
<clipPath id="clip0_75_1974">
<rect width="24" height="24" fill="white"/>
</clipPath>
</defs>
</svg>
