<svg width="128" height="62" viewBox="0 0 128 62" fill="none" xmlns="http://www.w3.org/2000/svg">
<path d="M19.4066 3.1C19.0066 3.1 18.6866 2.98 18.4466 2.74C18.2066 2.5 18.0866 2.17333 18.0866 1.76C18.0866 1.37333 18.2066 1.06 18.4466 0.819999C18.6866 0.579999 19.0066 0.459999 19.4066 0.459999C19.8066 0.459999 20.1199 0.579999 20.3466 0.819999C20.5866 1.04667 20.7066 1.36 20.7066 1.76C20.7066 2.65333 20.2732 3.1 19.4066 3.1ZM11.9266 11.56C12.5532 9.62667 13.4866 8.04667 14.7266 6.82C16.0866 5.46 17.6466 4.78 19.4066 4.78C20.9799 4.78 22.2399 5.32667 23.1866 6.42C23.9866 7.34 24.3866 8.48 24.3866 9.84V10.28C24.3866 11.4933 24.0066 12.44 23.2466 13.12C22.5932 13.7067 21.7466 14 20.7066 14H12.0666C11.6132 14 11.1932 13.94 10.8066 13.82C10.5532 15.1 9.90656 16.1067 8.86656 16.84C7.93323 17.48 6.7999 17.8 5.46656 17.8C3.66656 17.8 2.27323 17.1667 1.28656 15.9C0.513229 14.9133 0.126563 13.7533 0.126563 12.42C0.126563 11.3667 0.373229 10.4467 0.866563 9.66L3.26656 9.16C2.73323 10.0667 2.46656 11.02 2.46656 12.02C2.46656 13.0333 2.75323 13.8533 3.32656 14.48C3.87323 15.08 4.58656 15.38 5.46656 15.38C6.38656 15.38 7.0999 15.1467 7.60656 14.68C8.12656 14.2133 8.38656 13.56 8.38656 12.72V7.5L10.9066 6.18V10.14C10.9066 10.9933 11.2466 11.4667 11.9266 11.56ZM21.8666 10.12V9.84C21.8666 9.04 21.6399 8.38667 21.1866 7.88C20.7332 7.37333 20.1466 7.12 19.4266 7.12C18.3866 7.12 17.4132 7.52 16.5066 8.32C15.6132 9.12 14.9066 10.2067 14.3866 11.58H20.6066C21.0866 11.58 21.4132 11.48 21.5866 11.28C21.7732 11.0667 21.8666 10.68 21.8666 10.12ZM31.9997 13.42C31.5864 13.5 31.1597 13.54 30.7197 13.54C29.493 13.54 28.513 13.08 27.7797 12.16C27.1797 11.3867 26.8797 10.4533 26.8797 9.36C26.8797 7.89333 27.2797 6.74 28.0797 5.9C28.7864 5.15333 29.7197 4.78 30.8797 4.78C32.0664 4.78 32.993 5.16 33.6597 5.92C34.233 6.57333 34.5197 7.42667 34.5197 8.48V12.76C34.5197 14.3333 34.1064 15.5733 33.2797 16.48C32.5064 17.3333 31.453 17.76 30.1197 17.76C29.2797 17.76 28.4597 17.5333 27.6597 17.08V14.9C28.3797 15.3133 29.0997 15.52 29.8197 15.52C31.113 15.52 31.8397 14.82 31.9997 13.42ZM32.0197 8.44C32.0197 7.56 31.6397 7.12 30.8797 7.12C30.3997 7.12 30.0197 7.31333 29.7397 7.7C29.473 8.08667 29.3397 8.61333 29.3397 9.28C29.3397 10.6933 29.8464 11.4 30.8597 11.4C31.393 11.4 31.7797 11.2667 32.0197 11V8.44ZM44.2575 11.58H46.0575V14H44.0175C43.5642 14 43.1442 13.94 42.7575 13.82C42.5842 15.1 42.0708 16.1133 41.2175 16.86C40.4442 17.5267 39.5175 17.86 38.4375 17.86C37.5975 17.86 36.7775 17.6467 35.9775 17.22V15.02C36.6708 15.4067 37.3508 15.6 38.0175 15.6C38.7508 15.6 39.3175 15.36 39.7175 14.88C40.1308 14.4133 40.3375 13.76 40.3375 12.92V6.44L41.9775 5.58L42.8375 5.12V5.14L42.8575 5.12V10.14C42.8575 10.66 42.9642 11.0333 43.1775 11.26C43.3908 11.4733 43.7508 11.58 44.2575 11.58ZM44.8648 14V11.58H48.3848V14H44.8648ZM47.1891 14V11.58H50.7091V14H47.1891ZM49.5133 14V11.58H53.0333V14H49.5133ZM51.8375 14V11.58H55.3575V14H51.8375ZM54.1617 14V11.58H57.6817V14H54.1617ZM56.4859 14V11.58H60.0059V14H56.4859ZM58.8102 14V11.58H62.3302V14H58.8102ZM61.1344 14V11.58H64.6544V14H61.1344ZM63.4586 14V11.58H66.9786V14H63.4586ZM65.7828 14V11.58H69.3028V14H65.7828ZM68.107 14V11.58H71.627V14H68.107ZM70.4312 14V11.58H73.9513V14H70.4312ZM72.7555 14V11.58H76.2755V14H72.7555ZM75.0797 14V11.58H78.5997V14H75.0797ZM77.4039 14V11.58H80.9239V14H77.4039ZM79.7281 14V11.58H83.2481V14H79.7281ZM82.0523 14V11.58H85.5723V14H82.0523ZM84.3766 14V11.58H87.8966V14H84.3766ZM86.7008 14V11.58H90.2208V14H86.7008ZM89.025 14V11.58H92.545V14H89.025ZM91.3492 14V11.58H94.8692V14H91.3492ZM93.6734 14V11.58H97.1934V14H93.6734ZM95.9977 14V11.58H99.5177V14H95.9977ZM98.3219 14V11.58H101.842V14H98.3219ZM100.646 14V11.58H104.166V14H100.646ZM102.97 14V11.58H106.49V14H102.97ZM105.295 14V11.58H108.815V14H105.295ZM107.619 14V11.58H111.139V14H107.619ZM109.943 14V11.58H113.463V14H109.943ZM112.267 14V11.58H115.787V14H112.267ZM114.591 14V11.58H118.111V14H114.591ZM127.996 11.58V14H116.916V11.58H119.876C119.502 10.8467 119.316 10.0333 119.316 9.14C119.316 7.72667 119.809 6.60667 120.796 5.78C121.596 5.11333 122.522 4.78 123.576 4.78C125.002 4.78 126.156 5.39333 127.036 6.62V8.84C126.062 7.69333 125.002 7.12 123.856 7.12C123.242 7.12 122.749 7.31333 122.376 7.7C122.016 8.07333 121.836 8.58 121.836 9.22C121.836 9.95333 122.062 10.5333 122.516 10.96C122.982 11.3733 123.616 11.58 124.416 11.58H127.996ZM4.64141 26.7C4.24141 26.7 3.92141 26.58 3.68141 26.34C3.44141 26.1 3.32141 25.7733 3.32141 25.36C3.32141 24.4933 3.76141 24.06 4.64141 24.06C5.04141 24.06 5.35474 24.18 5.58141 24.42C5.82141 24.6467 5.94141 24.96 5.94141 25.36C5.94141 26.2533 5.50807 26.7 4.64141 26.7ZM7.72141 26.7C7.32141 26.7 7.00141 26.58 6.76141 26.34C6.52141 26.1 6.40141 25.7733 6.40141 25.36C6.40141 24.4933 6.84141 24.06 7.72141 24.06C8.12141 24.06 8.43474 24.18 8.66141 24.42C8.90141 24.6467 9.02141 24.96 9.02141 25.36C9.02141 26.2533 8.58807 26.7 7.72141 26.7ZM11.1014 35.58H12.9014V38H10.8614C9.62141 38 8.66141 37.5867 7.98141 36.76C7.40807 37.2 6.70807 37.42 5.88141 37.42C4.65474 37.42 3.67474 36.96 2.94141 36.04C2.34141 35.28 2.04141 34.3667 2.04141 33.3C2.04141 31.98 2.46807 30.9067 3.32141 30.08C4.04141 29.3867 4.87474 29.04 5.82141 29.04C6.31474 29.04 6.76807 29.1333 7.18141 29.32V28.8L9.68141 27.48V34.14C9.68141 34.66 9.78807 35.0333 10.0014 35.26C10.2281 35.4733 10.5947 35.58 11.1014 35.58ZM7.18141 31.84C6.83474 31.5467 6.44141 31.4 6.00141 31.4C5.56141 31.4 5.20141 31.58 4.92141 31.94C4.65474 32.3 4.52141 32.7733 4.52141 33.36C4.52141 33.9467 4.65474 34.4133 4.92141 34.76C5.18807 35.1067 5.55474 35.28 6.02141 35.28C6.52807 35.28 6.92141 35.1067 7.20141 34.76C7.18807 34.6533 7.18141 34.4867 7.18141 34.26V31.84ZM11.7008 38V35.58H15.2208V38H11.7008ZM14.025 38V35.58H17.545V38H14.025ZM16.3492 38V35.58H19.8692V38H16.3492ZM18.6734 38V35.58H22.1934V38H18.6734ZM20.9977 38V35.58H24.5177V38H20.9977ZM23.3219 38V35.58H26.8419V38H23.3219ZM25.6461 38V35.58H29.1661V38H25.6461ZM27.9703 38V35.58H31.4903V38H27.9703ZM30.2945 38V35.58H33.8145V38H30.2945ZM32.6187 38V35.58H36.1388V38H32.6187ZM34.943 38V35.58H38.463V38H34.943ZM37.2672 38V35.58H40.7872V38H37.2672ZM39.5914 38V35.58H43.1114V38H39.5914ZM41.9156 38V35.58H45.4356V38H41.9156ZM44.2398 38V35.58H47.7598V38H44.2398ZM46.5641 38V35.58H50.0841V38H46.5641ZM48.8883 38V35.58H52.4083V38H48.8883ZM51.2125 38V35.58H54.7325V38H51.2125ZM53.5367 38V35.58H57.0567V38H53.5367ZM55.8609 38V35.58H59.3809V38H55.8609ZM58.1852 38V35.58H61.7052V38H58.1852ZM60.5094 38V35.58H64.0294V38H60.5094ZM62.8336 38V35.58H66.3536V38H62.8336ZM65.1578 38V35.58H68.6778V38H65.1578ZM67.482 38V35.58H71.002V38H67.482ZM69.8062 38V35.58H73.3263V38H69.8062ZM72.1305 38V35.58H75.6505V38H72.1305ZM74.4547 38V35.58H77.9747V38H74.4547ZM76.7789 38V35.58H80.2989V38H76.7789ZM79.1031 38V35.58H82.6231V38H79.1031ZM81.4273 38V35.58H84.9473V38H81.4273ZM83.7516 38V35.58H87.2716V38H83.7516ZM86.0758 38V35.58H89.5958V38H86.0758ZM88.4 38V35.58H91.92V38H88.4ZM90.7242 38V35.58H94.2442V38H90.7242ZM93.0484 38V35.58H96.5684V38H93.0484ZM95.3727 38V35.58H98.8927V38H95.3727ZM97.6969 38V35.58H99.4969C100.004 35.58 100.364 35.4733 100.577 35.26C100.79 35.0333 100.897 34.66 100.897 34.14V30.44L103.417 29.12V34.26C103.417 35.4733 103.044 36.42 102.297 37.1C101.644 37.7 100.79 38 99.7369 38H97.6969ZM98.7769 42.46C98.3769 42.46 98.0569 42.34 97.8169 42.1C97.5769 41.86 97.4569 41.5333 97.4569 41.12C97.4569 40.2533 97.8969 39.82 98.7769 39.82C99.1769 39.82 99.4902 39.9333 99.7169 40.16C99.9569 40.4 100.077 40.72 100.077 41.12C100.077 42.0133 99.6435 42.46 98.7769 42.46ZM101.857 42.46C101.457 42.46 101.137 42.34 100.897 42.1C100.657 41.86 100.537 41.5333 100.537 41.12C100.537 40.2533 100.977 39.82 101.857 39.82C102.257 39.82 102.57 39.9333 102.797 40.16C103.037 40.4 103.157 40.72 103.157 41.12C103.157 42.0133 102.724 42.46 101.857 42.46ZM107.011 38V26.44L109.531 25.1V38H107.011ZM111.524 38L112.784 35.58H115.944C116.624 35.58 116.964 35.1867 116.964 34.4C116.964 32.9333 116.258 31.8067 114.844 31.02L116.084 28.88C118.164 30.0933 119.284 31.74 119.444 33.82C119.498 34.4867 119.644 34.9467 119.884 35.2C120.138 35.4533 120.564 35.58 121.164 35.58H122.684V38H121.024C120.038 38 119.204 37.7267 118.524 37.18C118.031 37.7267 117.324 38 116.404 38H111.524ZM121.486 38V35.58H123.286C123.793 35.58 124.153 35.4733 124.366 35.26C124.579 35.0333 124.686 34.66 124.686 34.14V30.44L127.206 29.12V34.26C127.206 35.4733 126.833 36.42 126.086 37.1C125.433 37.7 124.579 38 123.526 38H121.486ZM125.726 42.46C125.326 42.46 125.006 42.34 124.766 42.1C124.526 41.86 124.406 41.5333 124.406 41.12C124.406 40.7333 124.526 40.42 124.766 40.18C125.006 39.94 125.326 39.82 125.726 39.82C126.126 39.82 126.439 39.9333 126.666 40.16C126.906 40.4 127.026 40.72 127.026 41.12C127.026 42.0133 126.593 42.46 125.726 42.46ZM4.7 50.7C4.3 50.7 3.98 50.58 3.74 50.34C3.5 50.1 3.38 49.7733 3.38 49.36C3.38 48.4933 3.82 48.06 4.7 48.06C5.1 48.06 5.41333 48.18 5.64 48.42C5.88 48.6467 6 48.96 6 49.36C6 50.2533 5.56667 50.7 4.7 50.7ZM7.78 50.7C7.38 50.7 7.06 50.58 6.82 50.34C6.58 50.1 6.46 49.7733 6.46 49.36C6.46 48.4933 6.9 48.06 7.78 48.06C8.18 48.06 8.49333 48.18 8.72 48.42C8.96 48.6467 9.08 48.96 9.08 49.36C9.08 50.2533 8.64667 50.7 7.78 50.7ZM11.16 59.58H12.96V62H10.92C9.68 62 8.72 61.5867 8.04 60.76C7.46667 61.2 6.76667 61.42 5.94 61.42C4.71333 61.42 3.73333 60.96 3 60.04C2.4 59.28 2.1 58.3667 2.1 57.3C2.1 55.98 2.52667 54.9067 3.38 54.08C4.1 53.3867 4.93333 53.04 5.88 53.04C6.37333 53.04 6.82667 53.1333 7.24 53.32V52.8L9.74 51.48V58.14C9.74 58.66 9.84667 59.0333 10.06 59.26C10.2867 59.4733 10.6533 59.58 11.16 59.58ZM7.24 55.84C6.89333 55.5467 6.5 55.4 6.06 55.4C5.62 55.4 5.26 55.58 4.98 55.94C4.71333 56.3 4.58 56.7733 4.58 57.36C4.58 57.9467 4.71333 58.4133 4.98 58.76C5.24667 59.1067 5.61333 59.28 6.08 59.28C6.58667 59.28 6.98 59.1067 7.26 58.76C7.24667 58.6533 7.24 58.4867 7.24 58.26V55.84ZM11.7594 62V59.58H15.2794V62H11.7594ZM14.0836 62V59.58H17.6036V62H14.0836ZM16.4078 62V59.58H19.9278V62H16.4078ZM18.732 62V59.58H22.252V62H18.732ZM21.0562 62V59.58H24.5763V62H21.0562ZM23.3805 62V59.58H26.9005V62H23.3805ZM25.7047 62V59.58H29.2247V62H25.7047ZM28.0289 62V59.58H31.5489V62H28.0289ZM30.3531 62V59.58H33.8731V62H30.3531ZM32.6773 62V59.58H36.1973V62H32.6773ZM35.0016 62V59.58H38.5216V62H35.0016ZM37.3258 62V59.58H40.8458V62H37.3258ZM39.65 62V59.58H43.17V62H39.65ZM41.9742 62V59.58H45.4942V62H41.9742ZM44.2984 62V59.58H47.8184V62H44.2984ZM46.6227 62V59.58H50.1427V62H46.6227ZM48.9469 62V59.58H52.4669V62H48.9469ZM51.2711 62V59.58H54.7911V62H51.2711ZM53.5953 62V59.58H57.1153V62H53.5953ZM55.9195 62V59.58H59.4395V62H55.9195ZM58.2437 62V59.58H61.7638V62H58.2437ZM60.568 62V59.58H64.088V62H60.568ZM62.8922 62V59.58H66.4122V62H62.8922ZM65.2164 62V59.58H68.7364V62H65.2164ZM67.5406 62V59.58H71.0606V62H67.5406ZM69.8648 62V59.58H73.3848V62H69.8648ZM72.1891 62V59.58H75.7091V62H72.1891ZM74.5133 62V59.58H78.0333V62H74.5133ZM76.8375 62V59.58H80.3575V62H76.8375ZM79.1617 62V59.58H82.6817V62H79.1617ZM81.4859 62V59.58H85.0059V62H81.4859ZM83.8102 62V59.58H87.3302V62H83.8102ZM90.0544 51.1C89.6544 51.1 89.3344 50.98 89.0944 50.74C88.8544 50.5 88.7344 50.1733 88.7344 49.76C88.7344 49.3733 88.8544 49.06 89.0944 48.82C89.3344 48.58 89.6544 48.46 90.0544 48.46C90.4544 48.46 90.7677 48.58 90.9944 48.82C91.2344 49.0467 91.3544 49.36 91.3544 49.76C91.3544 50.6533 90.921 51.1 90.0544 51.1ZM93.2544 59.58H95.0544V62H93.0144C92.041 62 91.2344 61.74 90.5944 61.22C89.9544 61.74 89.1477 62 88.1744 62H86.1344V59.58H87.9344C88.441 59.58 88.801 59.4733 89.0144 59.26C89.2277 59.0333 89.3344 58.66 89.3344 58.14V54.44L91.8544 53.12V58.14C91.8544 58.66 91.961 59.0333 92.1744 59.26C92.3877 59.4733 92.7477 59.58 93.2544 59.58ZM93.8492 62V59.58H95.9692C96.4759 59.58 96.8359 59.4733 97.0492 59.26C97.2759 59.0333 97.3892 58.66 97.3892 58.14V55.5L99.9092 54.18V58.14C99.9092 58.66 100.016 59.0333 100.229 59.26C100.443 59.4733 100.803 59.58 101.309 59.58H102.669C103.176 59.58 103.536 59.4733 103.749 59.26C103.963 59.0333 104.069 58.66 104.069 58.14V54.98L106.589 53.64V58.14C106.589 58.66 106.696 59.0333 106.909 59.26C107.136 59.4733 107.503 59.58 108.009 59.58H109.369C109.876 59.58 110.236 59.4733 110.449 59.26C110.663 59.0333 110.769 58.66 110.769 58.14V54.44L113.289 53.12V57.82C113.289 58.46 113.416 58.9133 113.669 59.18C113.936 59.4467 114.376 59.58 114.989 59.58H116.829V62H114.849C113.729 62 112.829 61.68 112.149 61.04C111.549 61.6667 110.743 61.9867 109.729 62H107.749C106.763 62 105.956 61.7067 105.329 61.12C104.756 61.6933 103.996 61.9867 103.049 62H101.069C100.083 62 99.2759 61.7067 98.6492 61.12C98.0226 61.7067 97.2159 62 96.2292 62H93.8492ZM115.627 62V59.58H116.887C117.5 59.58 117.933 59.4467 118.187 59.18C118.453 58.9133 118.587 58.46 118.587 57.82V50.44L121.087 49.1V57.84C121.087 59.1333 120.693 60.1667 119.907 60.94C119.187 61.6467 118.227 62 117.027 62H115.627ZM124.687 62V50.44L127.207 49.1V62H124.687Z" fill="white"/>
</svg>
