<svg width="25" height="25" viewBox="0 0 25 25" fill="none" xmlns="http://www.w3.org/2000/svg">
<g clip-path="url(#clip0_38_276)">
<path d="M12.329 12.0609C13.9172 12.0609 15.2925 11.4912 16.4163 10.3673C17.54 9.24362 18.1096 7.86868 18.1096 6.28025C18.1096 4.69237 17.54 3.31725 16.4161 2.19317C15.2922 1.06964 13.9171 0.5 12.329 0.5C10.7405 0.5 9.3656 1.06964 8.24188 2.19335C7.11816 3.31707 6.54834 4.69218 6.54834 6.28025C6.54834 7.86868 7.11816 9.2438 8.24207 10.3675C9.36597 11.491 10.7411 12.0609 12.329 12.0609Z" fill="white"/>
<path d="M22.4435 18.9549C22.4111 18.4872 22.3456 17.9771 22.2491 17.4384C22.1517 16.8957 22.0262 16.3826 21.8761 15.9137C21.721 15.429 21.5101 14.9504 21.2493 14.4917C20.9787 14.0156 20.6608 13.6011 20.3041 13.2599C19.9312 12.9031 19.4745 12.6161 18.9464 12.4069C18.4202 12.1987 17.837 12.0932 17.2131 12.0932C16.9681 12.0932 16.7312 12.1937 16.2736 12.4916C15.992 12.6753 15.6626 12.8877 15.2949 13.1226C14.9805 13.3229 14.5546 13.5106 14.0286 13.6805C13.5153 13.8466 12.9942 13.9308 12.4799 13.9308C11.9655 13.9308 11.4446 13.8466 10.9308 13.6805C10.4053 13.5108 9.97937 13.3231 9.66534 13.1228C9.30115 12.8901 8.97156 12.6777 8.68573 12.4915C8.2287 12.1935 7.99158 12.093 7.74658 12.093C7.12256 12.093 6.53955 12.1987 6.01349 12.407C5.48578 12.616 5.02893 12.9029 4.65558 13.2601C4.29907 13.6014 3.98102 14.0158 3.71075 14.4917C3.4502 14.9504 3.23926 15.4288 3.08398 15.9139C2.93402 16.3828 2.80859 16.8957 2.71118 17.4384C2.61469 17.9764 2.54913 18.4867 2.51672 18.9554C2.48486 19.4146 2.46875 19.8913 2.46875 20.3726C2.46875 21.6255 2.867 22.6397 3.65234 23.3877C4.42798 24.1257 5.45428 24.5002 6.70233 24.5002H18.2585C19.5065 24.5002 20.5325 24.1259 21.3083 23.3877C22.0938 22.6402 22.4921 21.6258 22.4921 20.3725C22.4919 19.8889 22.4756 19.4119 22.4435 18.9549Z" fill="white"/>
</g>
<defs>
<clipPath id="clip0_38_276">
<rect width="24" height="24" fill="white" transform="translate(0.5 0.5)"/>
</clipPath>
</defs>
</svg>
