<svg width="24" height="24" viewBox="0 0 24 24" fill="none" xmlns="http://www.w3.org/2000/svg">
<g clip-path="url(#clip0_75_2514)">
<path d="M11.7538 9.80178H20.432C20.5322 9.80178 20.625 9.74311 20.6682 9.65138C20.9311 9.09566 21.1674 8.52127 20.9146 8.14795C20.6725 7.78689 20.0816 7.63916 18.8725 7.63916C18.1035 7.63916 17.1312 7.70049 16.1041 7.76556C14.8273 7.84609 13.3814 7.93782 11.9591 7.93782C11.8647 7.93782 11.7778 7.98795 11.7314 8.06955C11.709 8.10902 11.51 8.48127 11.4855 9.36872C11.4828 9.44499 11.4866 9.51005 11.493 9.56872C11.5079 9.70098 11.6199 9.80178 11.7538 9.80178Z" fill="#0099FF"/>
<path d="M23.1712 13.4967L23.328 13.4423C23.4149 13.4108 23.4794 13.3378 23.4981 13.2466L23.6629 12.4455C23.6821 12.3543 23.6506 12.2594 23.5808 12.197L22.7098 11.4199C22.6629 11.3783 22.6026 11.3543 22.5408 11.3533L21.4816 11.3319C21.2704 11.1511 20.6518 10.62 20.3728 10.3869C20.3259 10.3474 20.2662 10.3261 20.2048 10.3261H12.1874C12.1021 10.3261 12.0226 10.3672 11.9735 10.437C11.9245 10.5064 11.9122 10.5954 11.9405 10.6759C12.0071 10.8637 12.1431 11.0237 12.3309 11.2461C12.5314 11.4829 12.8066 11.8071 13.1271 12.3196C13.3559 12.6866 13.3986 13.062 13.2541 13.438C13.0263 14.0268 12.397 14.4855 12.0285 14.59C11.7346 14.6743 11.2322 14.7239 10.6845 14.7239C9.81733 14.7239 8.91548 14.6017 8.1459 14.3793C6.71767 13.966 6.44567 10.7565 6.59767 10.2013C6.68193 9.89143 7.05739 8.86319 7.42058 7.86908C7.52298 7.58802 7.61151 7.34642 7.68938 7.13203C7.75338 7.17683 7.79977 7.20723 7.80297 7.20936C7.84671 7.23709 7.89471 7.25043 7.94324 7.25043C8.03017 7.25043 8.11497 7.20723 8.16457 7.12883C8.24243 7.00616 8.20617 6.84457 8.08404 6.7667C8.08297 6.76617 7.98857 6.70537 7.87497 6.61791C7.92991 6.46378 7.9763 6.33311 8.0147 6.22325C8.0195 6.22378 8.0243 6.22485 8.02857 6.22591C8.05577 6.30911 8.11977 6.37844 8.21097 6.40084C8.59069 6.49364 8.94535 6.62111 8.94908 6.62271C8.97842 6.63337 9.00828 6.63871 9.03815 6.63871C9.14588 6.63871 9.24614 6.57204 9.28508 6.46538C9.33414 6.32938 9.26374 6.17845 9.12775 6.12992C9.11228 6.12458 8.74429 5.99179 8.33576 5.89206C8.2515 5.87072 8.16937 5.89739 8.1075 5.94965C8.17417 5.74699 8.19337 5.66059 8.19337 5.61153C8.19337 5.12247 6.36781 4.44942 5.79929 4.42969C5.63182 4.42969 5.48516 4.49955 5.37476 4.63128C4.9657 5.11927 5.18437 6.49364 5.23237 6.76457C5.2521 6.87817 5.34383 6.96457 5.45849 6.97896L6.14595 7.06376C5.91502 7.79815 4.88997 10.077 4.67184 10.4168C4.62011 10.4914 4.27505 10.5528 4.10919 10.5821C3.75453 10.645 3.41907 10.7042 3.29161 10.9591C3.16148 11.2199 3.17161 11.6637 3.18921 11.9074C3.14974 11.9063 3.11135 11.8994 3.07188 11.8994C1.85751 11.8994 0.726332 12.5538 0.119945 13.6028C-0.0133849 13.8337 -0.0357844 14.0561 0.052747 14.2652C0.145545 14.4823 0.369007 14.6684 0.6682 14.8353C0.269809 15.335 0.0298142 15.9649 0.0298142 16.6518C0.0298142 18.2603 1.33805 19.5696 2.94655 19.5696C4.55505 19.5696 5.86329 18.2603 5.86329 16.6518C5.86329 16.574 5.85742 16.4961 5.85155 16.4182C6.11288 16.5142 6.45314 16.6737 6.5486 16.7238C6.64407 16.7745 6.723 16.7185 6.73953 16.6401C6.7566 16.5612 6.78913 16.3489 6.79713 16.1974C7.57205 16.8273 8.40349 16.8721 9.62747 16.8721H16.3905C16.6332 18.3974 17.9537 19.5686 19.5462 19.5686C21.3104 19.5686 22.7461 18.1339 22.7461 16.3686C22.7461 16.2742 22.7397 16.1814 22.7322 16.0902C23.6613 15.959 23.8128 15.8049 23.8853 15.7297C23.985 15.6284 24.0021 15.519 23.9994 15.4476C23.9786 14.8673 23.4618 13.9623 23.1712 13.4967ZM4.55185 16.6513C4.55185 17.5361 3.83186 18.2566 2.94655 18.2566C2.06124 18.2566 1.34125 17.5361 1.34125 16.6513C1.34125 16.118 1.60525 15.6486 2.0063 15.3558C2.48843 15.4993 3.01748 15.6326 3.56094 15.767C3.84093 15.8364 4.12359 15.9078 4.40038 15.9788C4.49532 16.1857 4.55185 16.4108 4.55185 16.6513ZM21.4336 16.3676C21.4336 17.4091 20.5862 18.256 19.5451 18.256C18.5041 18.256 17.6572 17.4091 17.6572 16.3676C19.039 16.3574 20.5339 16.2721 21.4181 16.215C21.4224 16.2662 21.4336 16.3164 21.4336 16.3676Z" fill="#0099FF"/>
</g>
<defs>
<clipPath id="clip0_75_2514">
<rect width="24" height="24" fill="white"/>
</clipPath>
</defs>
</svg>
